<svg xmlns="http://www.w3.org/2000/svg" width="139" height="139" viewBox="0 0 139 139"><g id="Gruppe_24455" data-name="Gruppe 24455" transform="translate(18711 2930)"><g id="Gruppe_24453" data-name="Gruppe 24453" transform="translate(-20119 -3413)"><path id="Pfad_46081" data-name="Pfad 46081" d="M69.5,0A69.5,69.5,0,1,1,0,69.5,69.5,69.5,0,0,1,69.5,0Z" transform="translate(1408 483)" fill="#aad59e"/><g id="Gruppe_24450" data-name="Gruppe 24450" transform="translate(-147.165 -90.651)"><g id="Gruppe_24452" data-name="Gruppe 24452" transform="translate(-1 -0.282)"><path id="Differenzmenge_651" data-name="Differenzmenge 651" d="M46.355,0H0V33.511L28.01,67.119c.02-.086,1.793-8.569,3.766-10.12a10.082,10.082,0,0,1,2.521-1.3c1.473-.594,2.863-1.154,3.641-2.73a10.309,10.309,0,0,0,.822-5.259v-.014l0-.051c-.018-.618-.035-1.257-.006-1.912l0-.029c.109-2.459.127-2.837,1.314-4.971a10.309,10.309,0,0,1,3.4-3.4A8.084,8.084,0,0,0,46.3,33.6a8.4,8.4,0,0,0-.562-4.677l0-.007a11.561,11.561,0,0,1-.887-4.394,6.921,6.921,0,0,1,3.771-5.177c.412-.215.828-.412,1.252-.612a10.228,10.228,0,0,0,4.039-2.816C56.65,12.5,56.18,9.319,55.521,6.6a8.891,8.891,0,0,0-2.947-4.247A9.689,9.689,0,0,0,46.355,0Z" transform="translate(1625.332 682.949) rotate(180)" fill="#4f3e48"/><path id="Differenzmenge_650" data-name="Differenzmenge 650" d="M20657.389,3485.4h-46.355V3451.89l28.01-33.608c.02.086,1.793,8.569,3.766,10.12a10.082,10.082,0,0,0,2.521,1.3c1.473.594,2.863,1.154,3.641,2.73a10.309,10.309,0,0,1,.822,5.259v.014l0,.051c-.018.618-.035,1.257-.006,1.912l0,.029c.109,2.459.127,2.837,1.314,4.971a10.309,10.309,0,0,0,3.4,3.4,8.084,8.084,0,0,1,2.832,3.724,8.4,8.4,0,0,1-.562,4.677l0,.007a11.561,11.561,0,0,0-.887,4.394,6.921,6.921,0,0,0,3.771,5.177c.412.215.828.412,1.252.612a10.228,10.228,0,0,1,4.039,2.816c2.736,3.416,2.266,6.6,1.607,9.316a8.891,8.891,0,0,1-2.947,4.247A9.689,9.689,0,0,1,20657.389,3485.4Z" transform="translate(-18985.035 -2802.453)" fill="#4f3e48"/></g><g id="Gruppe_24450-2" data-name="Gruppe 24450" transform="translate(-12 518)"><g id="Gruppe_482" data-name="Gruppe 482"><g id="Gruppe_452" data-name="Gruppe 452" transform="translate(1554.611 30.059)"><g id="Gruppe_438" data-name="Gruppe 438" transform="translate(35.687 39.877)"><g id="Gruppe_327" data-name="Gruppe 327" transform="translate(16.037 27.332)"><g id="Gruppe_326" data-name="Gruppe 326" transform="translate(0)"><g id="Gruppe_325" data-name="Gruppe 325" transform="translate(2.363)"><path id="Vereinigungsmenge_110" data-name="Vereinigungsmenge 110" d="M6.149,0C9.545,0,12.3,1.545,12.3,3.452S9.545,6.905,6.149,6.905,0,5.359,0,3.452,2.753,0,6.149,0Z" transform="translate(56.158 33.328) rotate(-180)" fill="#624b31"/><path id="Vereinigungsmenge_106" data-name="Vereinigungsmenge 106" d="M0,41.805H0V0H51.333V41.805h0c-.26,14.336-11.649,25.877-25.663,25.877S.262,56.141,0,41.805Z" transform="translate(3.108)" fill="#e6976c"/><g id="Vereinigungsmenge_111" data-name="Vereinigungsmenge 111" transform="translate(51.556 19.611)" fill="#e6976c"><path d="M 5.203669548034668 19.57635498046875 C 2.61005973815918 19.57635498046875 0.4999997019767761 17.26751518249512 0.4999997019767761 14.4295654296875 L 0.4999997019767761 5.646785736083984 C 0.4999997019767761 2.808835506439209 2.61005973815918 0.4999955892562866 5.203669548034668 0.4999955892562866 C 7.796639919281006 0.4999955892562866 9.906179428100586 2.808835506439209 9.906179428100586 5.646785736083984 L 9.906179428100586 14.4295654296875 C 9.906179428100586 17.26751518249512 7.796639919281006 19.57635498046875 5.203669548034668 19.57635498046875 Z" stroke="none"/><path d="M 5.203669548034668 19.07635498046875 C 7.520939826965332 19.07635498046875 9.406179428100586 16.9918155670166 9.406179428100586 14.4295654296875 L 9.406179428100586 5.646785736083984 C 9.406179428100586 3.084535598754883 7.520939826965332 0.9999955892562866 5.203669548034668 0.9999955892562866 C 2.885759830474854 0.9999955892562866 0.9999997019767761 3.084535598754883 0.9999997019767761 5.646785736083984 L 0.9999997019767761 14.4295654296875 C 0.9999997019767761 16.9918155670166 2.885759830474854 19.07635498046875 5.203669548034668 19.07635498046875 M 5.203669548034668 20.07635498046875 C 2.328079700469971 20.07635498046875 -2.859497101326269e-07 17.54875564575195 -2.859497101326269e-07 14.4295654296875 L -2.859497101326269e-07 5.646785736083984 C -2.859497101326269e-07 2.527595520019531 2.328079700469971 -4.417114269017475e-06 5.203669548034668 -4.417114269017475e-06 C 8.074619293212891 -4.417114269017475e-06 10.40617942810059 2.527595520019531 10.40617942810059 5.646785736083984 L 10.40617942810059 14.4295654296875 C 10.40617942810059 17.54875564575195 8.074619293212891 20.07635498046875 5.203669548034668 20.07635498046875 Z" stroke="none" fill="#e6976c"/></g><g id="Pfad_46072" data-name="Pfad 46072" transform="translate(25.506 38.28)" fill="#d38155"><path d="M 5.69530725479126 3.643712520599365 L 0.8682364821434021 3.643712520599365 C 1.351190209388733 2.921072959899902 2.224804639816284 1.907712459564209 3.325878381729126 1.907712459564209 C 4.412396430969238 1.907712459564209 5.243775844573975 2.92516827583313 5.69530725479126 3.643712520599365 Z" stroke="none"/><path d="M 3.325878381729126 2.407712459564209 C 2.810637950897217 2.407712459564209 2.321196556091309 2.734179735183716 1.914934635162354 3.143712520599365 L 4.698438167572021 3.143712520599365 C 4.314759254455566 2.735145568847656 3.842099666595459 2.407712459564209 3.325878381729126 2.407712459564209 M 3.325878381729126 1.407712459564209 C 5.374868392944336 1.407712459564209 6.535158157348633 4.143712520599365 6.535158157348633 4.143712520599365 L -1.430511474609375e-06 4.143712520599365 C -1.430511474609375e-06 4.143712520599365 1.276888370513916 1.407712459564209 3.325878381729126 1.407712459564209 Z" stroke="none" fill="#d38155"/></g><ellipse id="Ellipse_336" data-name="Ellipse 336" cx="1.892" cy="1.892" rx="1.892" ry="1.892" transform="translate(14.404 21.695)" fill="#434038"/><ellipse id="Ellipse_338" data-name="Ellipse 338" cx="1.892" cy="1.892" rx="1.892" ry="1.892" transform="translate(39 21.695)" fill="#434038"/></g><g id="Vereinigungsmenge_107" data-name="Vereinigungsmenge 107" transform="translate(-1 19.611)" fill="#e6976c"><path d="M 5.203669548034668 19.57635498046875 C 2.61005973815918 19.57635498046875 0.4999997019767761 17.26751518249512 0.4999997019767761 14.4295654296875 L 0.4999997019767761 5.646785736083984 C 0.4999997019767761 2.808835506439209 2.61005973815918 0.4999955892562866 5.203669548034668 0.4999955892562866 C 7.796639919281006 0.4999955892562866 9.906179428100586 2.808835506439209 9.906179428100586 5.646785736083984 L 9.906179428100586 14.4295654296875 C 9.906179428100586 17.26751518249512 7.796639919281006 19.57635498046875 5.203669548034668 19.57635498046875 Z" stroke="none"/><path d="M 5.203669548034668 19.07635498046875 C 7.520939826965332 19.07635498046875 9.406179428100586 16.9918155670166 9.406179428100586 14.4295654296875 L 9.406179428100586 5.646785736083984 C 9.406179428100586 3.084535598754883 7.520939826965332 0.9999955892562866 5.203669548034668 0.9999955892562866 C 2.885759830474854 0.9999955892562866 0.9999997019767761 3.084535598754883 0.9999997019767761 5.646785736083984 L 0.9999997019767761 14.4295654296875 C 0.9999997019767761 16.9918155670166 2.885759830474854 19.07635498046875 5.203669548034668 19.07635498046875 M 5.203669548034668 20.07635498046875 C 2.328079700469971 20.07635498046875 -2.859497101326269e-07 17.54875564575195 -2.859497101326269e-07 14.4295654296875 L -2.859497101326269e-07 5.646785736083984 C -2.859497101326269e-07 2.527595520019531 2.328079700469971 -4.417114269017475e-06 5.203669548034668 -4.417114269017475e-06 C 8.074619293212891 -4.417114269017475e-06 10.40617942810059 2.527595520019531 10.40617942810059 5.646785736083984 L 10.40617942810059 14.4295654296875 C 10.40617942810059 17.54875564575195 8.074619293212891 20.07635498046875 5.203669548034668 20.07635498046875 Z" stroke="none" fill="#e6976c"/></g></g><path id="Pfad_6668" data-name="Pfad 6668" d="M-5202.744,12886.54a9.15,9.15,0,0,1,4.992-1.567,7.868,7.868,0,0,1,4.693,1.567" transform="translate(5217.058 -12869.446)" fill="none" stroke="#432f49" stroke-linecap="round" stroke-width="2"/><path id="Pfad_6669" data-name="Pfad 6669" d="M-5202.744,12886.54a9.15,9.15,0,0,1,4.992-1.567,7.868,7.868,0,0,1,4.693,1.567" transform="translate(5242.046 -12869.446)" fill="none" stroke="#432f49" stroke-linecap="round" stroke-width="2"/><path id="Pfad_46071" data-name="Pfad 46071" d="M-5202.744,12884.972a9.15,9.15,0,0,0,4.992,1.567,7.869,7.869,0,0,0,4.693-1.567" transform="translate(5229.563 -12833.445)" fill="none" stroke="#c07a54" stroke-linecap="round" stroke-width="1.5"/></g></g></g></g></g><g id="Pfad_46073" data-name="Pfad 46073" transform="translate(1595.828 590.651)" fill="#584550"><path d="M 53.74333953857422 44.84867858886719 L 43.18483734130859 44.84867858886719 C 43.09210205078125 44.84194564819336 42.26445388793945 44.76959991455078 41.79938888549805 44.3136100769043 C 41.24179077148438 43.76686096191406 41.14189147949219 43.35531997680664 41.07601928710938 42.91189956665039 C 41.04695129394531 42.71619033813477 41.02764129638672 42.29743957519531 41.00897216796875 41.8924674987793 C 40.99420166015625 41.57207107543945 40.97891998291016 41.24076080322266 40.95742034912109 40.98863983154297 C 40.92990875244141 40.66609954833984 40.88386154174805 40.12625885009766 40.37406921386719 40.12625885009766 C 40.22869873046875 40.12625885009766 39.88352966308594 40.18552780151367 39.81822204589844 40.73448944091797 C 39.80353927612305 40.85781097412109 39.79566192626953 41.01314926147461 39.78567886352539 41.20980834960938 C 39.76440048217773 41.62894821166992 39.73526000976562 42.20298767089844 39.61919021606445 42.73778915405273 L 39.61476135253906 42.75819778442383 L 39.61204147338867 42.7789192199707 C 39.61112976074219 42.78559875488281 39.4981689453125 43.58258819580078 39.06423950195312 44.08353042602539 C 38.69864273071289 44.50558471679688 38.05961227416992 44.77042007446289 37.85151290893555 44.84867858886719 L 22.6328125 44.84867858886719 C 22.39803504943848 44.82727432250977 21.7601146697998 44.72096633911133 21.36569023132324 44.45785903930664 C 20.92070770263672 44.16101455688477 20.67307472229004 43.59956359863281 20.65035057067871 43.54632949829102 C 20.57621574401855 43.3477897644043 20.03374290466309 41.85041809082031 19.55705070495605 39.31742095947266 C 18.81642150878906 35.3819694519043 18.33234977722168 29.33681869506836 18.32755088806152 29.27621841430664 L 17.33075141906738 29.2752799987793 C 17.32622146606445 29.33111953735352 16.86985015869141 34.90549087524414 16.20700073242188 38.84608840942383 C 15.96254062652588 40.29937744140625 15.33999061584473 42.91949844360352 15.33373069763184 42.94580078125 L 15.32726097106934 42.97298812866211 L 15.32386016845703 43.00072860717773 C 15.32327079772949 43.00479888916016 15.21827030181885 43.7311897277832 14.63800048828125 44.16209030151367 C 14.1056604385376 44.55739593505859 13.09330272674561 44.78563690185547 12.70167255401611 44.84867858886719 L 7.028230667114258 44.84867858886719 L 3.932440519332886 44.84867858886719 C 2.039790630340576 44.84867858886719 0.5000005960464478 43.42351913452148 0.5000005960464478 41.67176055908203 L 0.5000005960464478 20.83587837219238 C 0.5000005960464478 18.0945987701416 1.074230670928955 15.43524932861328 2.206730604171753 12.93168926239014 C 3.301780700683594 10.51091957092285 4.870150566101074 8.336189270019531 6.868270397186279 6.467909336090088 C 8.868770599365234 4.597389221191406 11.19887065887451 3.128609180450439 13.7938404083252 2.102349281311035 C 16.4822998046875 1.039109349250793 19.3387508392334 0.4999992847442627 22.28382110595703 0.4999992847442627 L 35.39196014404297 0.4999992847442627 C 38.33703231811523 0.4999992847442627 41.1934814453125 1.039109349250793 43.88193893432617 2.102349281311035 C 46.47690963745117 3.128609180450439 48.80701065063477 4.597389221191406 50.80751037597656 6.467909336090088 C 52.80562973022461 8.336189270019531 54.37400054931641 10.51091957092285 55.46905136108398 12.93168926239014 C 56.6015510559082 15.43524932861328 57.17578125 18.0945987701416 57.17578125 20.83587837219238 L 57.17578125 41.67176055908203 C 57.17578125 43.42351913452148 55.63599014282227 44.84867858886719 53.74333953857422 44.84867858886719 Z" stroke="none"/><path d="M 22.28382110595703 1 C 19.40196990966797 1 16.60739135742188 1.527320861816406 13.97772216796875 2.567310333251953 C 11.44132232666016 3.570400238037109 9.164249420166016 5.005630493164062 7.209758758544922 6.8331298828125 C 5.260028839111328 8.656169891357422 3.73004150390625 10.77735900878906 2.66229248046875 13.13776016235352 C 1.559280395507812 15.57612991333008 1 18.1661491394043 1 20.83587837219238 L 1 41.67176055908203 C 1 43.14781951904297 2.31549072265625 44.34867858886719 3.932441711425781 44.34867858886719 L 12.66073226928711 44.34867858886719 C 13.07820129394531 44.27733612060547 13.93359756469727 44.0623779296875 14.33992004394531 43.76065063476562 C 14.71707916259766 43.48057174682617 14.81613922119141 42.99940872192383 14.82810211181641 42.93358612060547 L 14.83102035522461 42.89851760864258 L 14.84732055664062 42.83000946044922 C 14.85354995727539 42.80387115478516 15.47228240966797 40.19968032836914 15.71390914916992 38.76314926147461 C 16.37311172485352 34.84433746337891 16.8278694152832 29.29047012329102 16.83238983154297 29.23482894897461 L 18.82598114013672 29.23670959472656 C 18.83077239990234 29.29706001281738 19.31287002563477 35.31644821166992 20.04843139648438 39.22493743896484 C 20.510009765625 41.67765426635742 21.0295295715332 43.13077545166016 21.11470031738281 43.36053085327148 C 21.17198944091797 43.49143981933594 21.37541580200195 43.86329650878906 21.64316177368164 44.04190826416016 C 21.90931701660156 44.21945190429688 22.39322662353516 44.32186126708984 22.65670776367188 44.34867858886719 L 37.75861358642578 44.34867858886719 C 38.0097770690918 44.24610900878906 38.44992065429688 44.0290641784668 38.68630218505859 43.75616836547852 C 38.96088409423828 43.43918609619141 39.08931350708008 42.89839553833008 39.11652374267578 42.7119140625 L 39.12051010131836 42.67807006835938 L 39.13056182861328 42.63174057006836 C 39.23796844482422 42.13684844970703 39.26591110229492 41.58638763427734 39.28631973266602 41.1844596862793 C 39.29678344726562 40.97834777832031 39.30504989624023 40.81554794311523 39.32172012329102 40.67540740966797 C 39.44305038452148 39.65570068359375 40.27912902832031 39.62625885009766 40.37406921386719 39.62625885009766 C 40.76596069335938 39.62625885009766 41.27091979980469 39.86679840087891 41.40433120727539 40.54471969604492 C 41.42485046386719 40.64901733398438 41.4411506652832 40.77656936645508 41.45561218261719 40.94614791870117 C 41.47794342041016 41.20798873901367 41.49345016479492 41.54425048828125 41.50843811035156 41.86944961547852 C 41.52484130859375 42.22513961791992 41.54524993896484 42.66781997680664 41.57060241699219 42.83843994140625 C 41.62841796875 43.22771072387695 41.699951171875 43.51585006713867 42.14945220947266 43.95658874511719 C 42.43054580688477 44.23220062255859 42.99681854248047 44.3318977355957 43.20298004150391 44.34867858886719 L 53.74333953857422 44.34867858886719 C 55.36029052734375 44.34867858886719 56.67578125 43.14781951904297 56.67578125 41.67176055908203 L 56.67578125 20.83587837219238 C 56.67578125 18.1661491394043 56.11650085449219 15.57612991333008 55.01348876953125 13.13776016235352 C 53.94573974609375 10.77735900878906 52.41574859619141 8.656169891357422 50.46601867675781 6.8331298828125 C 48.51153182983398 5.005630493164062 46.23445892333984 3.570400238037109 43.69805908203125 2.567310333251953 C 41.06838989257812 1.527320861816406 38.27381134033203 1 35.39196014404297 1 L 22.28382110595703 1 M 22.28382110595703 0 L 35.39196014404297 0 C 47.69897079467773 0 57.67578125 9.328540802001953 57.67578125 20.83587837219238 L 57.67578125 41.67176055908203 C 57.67578125 43.70246124267578 55.91516876220703 45.34867858886719 53.74333953857422 45.34867858886719 L 43.16937255859375 45.34867858886719 C 43.16937255859375 45.34867858886719 42.0880126953125 45.29684066772461 41.4493408203125 44.67062759399414 C 40.81069183349609 44.04441070556641 40.66336822509766 43.53684997558594 40.58145141601562 42.98537063598633 C 40.49951934814453 42.43389129638672 40.50080108642578 40.62625885009766 40.37406921386719 40.62625885009766 C 40.24734115600586 40.62625885009766 40.33823013305664 41.78216934204102 40.10781097412109 42.84383773803711 C 40.10781097412109 42.84383773803711 39.98460006713867 43.7846794128418 39.44216156005859 44.4109001159668 C 38.89973068237305 45.037109375 37.93807983398438 45.34867858886719 37.93807983398438 45.34867858886719 L 22.61162185668945 45.34867858886719 C 22.61162185668945 45.34867858886719 21.69480895996094 45.27845001220703 21.08822250366211 44.87379837036133 C 20.48163223266602 44.46915054321289 20.18526077270508 43.73009872436523 20.18526077270508 43.73009872436523 C 19.95429229736328 43.1156005859375 19.47074890136719 41.56232070922852 19.06568145751953 39.40988922119141 C 18.31135177612305 35.40164947509766 17.82910919189453 29.31571960449219 17.82910919189453 29.31571960449219 C 17.82910919189453 29.31571960449219 17.37430191040039 34.92079162597656 16.7000617980957 38.92903137207031 C 16.44993209838867 40.41608810424805 15.82014083862305 43.06158828735352 15.82014083862305 43.06158828735352 C 15.82014083862305 43.06158828735352 15.70606994628906 43.99172973632812 14.93610000610352 44.56349945068359 C 14.16613006591797 45.13526916503906 12.74026107788086 45.34867858886719 12.74026107788086 45.34867858886719 L 3.932441711425781 45.34867858886719 C 1.760612487792969 45.34867858886719 0 43.70246124267578 0 41.67176055908203 L 0 20.83587837219238 C 0 9.328540802001953 9.976810455322266 0 22.28382110595703 0 Z" stroke="none" fill="#584550"/></g><rect id="Rechteck_13002" data-name="Rechteck 13002" width="15" height="16" transform="translate(1617.164 679.651)" fill="#e6976c"/></g><path id="Schnittmenge_58" data-name="Schnittmenge 58" d="M36,130.408V130a9,9,0,0,1,9-9H94a9,9,0,0,1,9,9v.408a69.6,69.6,0,0,1-67,0Z" transform="translate(1408 483)" fill="#f8b8e4"/><path id="Polygon_18" data-name="Polygon 18" d="M14,0,28,9H0Z" transform="translate(1492 613) rotate(180)" fill="#e6976c"/><path id="Differenzmenge_652" data-name="Differenzmenge 652" d="M20131,3431.945h0v-17.886a9,9,0,0,1,0,17.887Z" transform="translate(-5616.596 -18536.924) rotate(60)" fill="#fff"/><path id="Differenzmenge_653" data-name="Differenzmenge 653" d="M0,0H0V17.887A8.982,8.982,0,0,0,8,8.946,8.985,8.985,0,0,0,0,0Z" transform="translate(1479.245 613.007) rotate(120)" fill="#fff"/></g><path id="Schnittmenge_59" data-name="Schnittmenge 59" d="M30.843,127.266A7,7,0,0,1,43,132v1.769A69.287,69.287,0,0,1,30.843,127.266Z" transform="translate(-18711 -2930)" fill="#f8b8e4"/><path id="Schnittmenge_60" data-name="Schnittmenge 60" d="M96,132a7,7,0,0,1,12.156-4.734A69.344,69.344,0,0,1,96,133.769Z" transform="translate(-18711 -2930)" fill="#f8b8e4"/></g></svg>