<svg xmlns="http://www.w3.org/2000/svg" xmlns:xlink="http://www.w3.org/1999/xlink" width="696.106" height="696.107" viewBox="0 0 696.106 696.107"><defs><clipPath id="clip-path"><rect id="Rechteck_13034" data-name="Rechteck 13034" width="696.106" height="696.107" fill="none"/></clipPath></defs><g id="Theorie_Symbol" transform="translate(-437 -191.946)"><g id="Gruppe_24487" data-name="Gruppe 24487" transform="translate(437 191.944)"><g id="Gruppe_24486" data-name="Gruppe 24486" transform="translate(0 0.002)" clip-path="url(#clip-path)"><path id="Pfad_46099" data-name="Pfad 46099" d="M348.063,696.109c191.686,0,348.043-156.358,348.043-348.063S539.748,0,348.063,0C156.358,0,0,156.342,0,348.045S156.358,696.109,348.063,696.109" transform="translate(0 -0.002)" fill="#746180" fill-rule="evenodd"/><path id="Pfad_46100" data-name="Pfad 46100" d="M212.6,365.867V617.028a373.836,373.836,0,0,1,188.824-2.766c-46.028-40.821-103.483-40.8-158.495-40.8l-7.286.018V360.03l-10.4,2.461q-6.38,1.6-12.647,3.376" transform="translate(-69.536 -117.758)" fill="#fff" fill-rule="evenodd"/><path id="Pfad_46101" data-name="Pfad 46101" d="M260.022,290.355V541.841c58.122,0,118.78.419,167.5,47.364V341.477c-22.2-23.806-49.538-36.548-78.761-43.358-28.632-6.676-59.248-7.687-88.737-7.764" transform="translate(-85.047 -94.969)" fill="#fff" fill-rule="evenodd"/><path id="Pfad_46102" data-name="Pfad 46102" d="M522.142,341.475V589.2c48.718-46.944,109.377-47.363,167.5-47.363V290.354c-29.49.077-60.106,1.088-88.737,7.764-29.223,6.811-56.557,19.553-78.761,43.358" transform="translate(-170.779 -94.969)" fill="#fff" fill-rule="evenodd"/><path id="Pfad_46103" data-name="Pfad 46103" d="M696.378,573.48c-54.994-.018-112.448-.018-158.476,40.783a373.76,373.76,0,0,1,188.8,2.766V365.867q-6.265-1.774-12.646-3.376l-10.4-2.461V573.48Z" transform="translate(-175.934 -117.758)" fill="#fff" fill-rule="evenodd"/></g></g></g></svg>