<svg xmlns="http://www.w3.org/2000/svg" xmlns:xlink="http://www.w3.org/1999/xlink" width="621" height="617" viewBox="0 0 621 617"><defs><clipPath id="clip-path"><rect id="Rechteck_13023" data-name="Rechteck 13023" width="228.498" height="310.719" fill="#746180"/></clipPath><clipPath id="clip-path-2"><rect id="Rechteck_13022" data-name="Rechteck 13022" width="192.74" height="244.731" fill="#746180"/></clipPath><clipPath id="clip-path-3"><rect id="Rechteck_13022-2" data-name="Rechteck 13022" width="192.74" height="244.731" fill="#967ea6"/></clipPath><clipPath id="clip-path-4"><rect id="Rechteck_13023-2" data-name="Rechteck 13023" width="228.498" height="310.719" fill="#d4eace"/></clipPath></defs><g id="Alter" transform="translate(-551 -232)"><g id="Gruppe_24472" data-name="Gruppe 24472"><path id="Pfad_46084" data-name="Pfad 46084" d="M0,0H621V617H0Z" transform="translate(551 232)" fill="#d4eace"/><path id="Pfad_46094" data-name="Pfad 46094" d="M0,0H310.5V617H0Z" transform="translate(861.5 232)" fill="#967ea6"/><g id="Gruppe_24474" data-name="Gruppe 24474" transform="translate(911.5 389.641)"><g id="Gruppe_24470" data-name="Gruppe 24470" clip-path="url(#clip-path)"><path id="Pfad_46091" data-name="Pfad 46091" d="M64.214,178.622,107.593,126.7l9.69,12.632c13.307,12.788,24.305,22.956,38.686,36.746,3.923,3.852,8.154,6.086,13.23,1.541,4.462-4.006,3.538-8.551.154-12.558-9.306-10.784-17.766-20.874-25.226-30.042L121.976,88.8a39.7,39.7,0,0,0-2.154-4.467h-.077a5.909,5.909,0,0,0-1.306-2,23.182,23.182,0,0,0-2.847-3.311c-10.153-10.169-27.765-9.707-36.917,1.463L18.914,153.123a29.118,29.118,0,0,0-6.46,14.637c-.077.77-.155,1.616-.232,2.387C8.915,207.2,1.685,278.223.07,310.962c-.461,7.934,1.153,14.713,10.845,15.947,8.536,1,12.612-4.238,13.767-11.787,4.922-33.664,11.844-72.8,16.228-96.444,4.538,8.78,8.692,17.794,15.3,31.814-1.768,19.8-3.23,38.054-3.844,50.609-.462,7.934,1.153,14.715,10.844,15.947,8.614,1,12.614-4.238,13.767-11.787,1.77-12.17,3.616-24.342,5.615-36.361,4.693-29.731,4.077-21.337-5.69-50.377-5.308-15.946-11.154-34.126-12.692-39.9" transform="translate(0 -16.313)" fill="#746180" fill-rule="evenodd"/><path id="Pfad_46092" data-name="Pfad 46092" d="M172.273,0a32.624,32.624,0,1,1-32.611,32.585A32.572,32.572,0,0,1,172.273,0" transform="translate(-31.762)" fill="#746180" fill-rule="evenodd"/><path id="Pfad_46093" data-name="Pfad 46093" d="M219.758,206.6H202.222a14.182,14.182,0,0,0-10.383,4.391v-.077a20.6,20.6,0,0,0-5.538,11.861q-8.537,63.551-17.074,127.182c-.23,5.162,8.614,5.393,9,0l11-81.578.231-1.77h60.529l.232,1.77,7.844,58.314a20.023,20.023,0,0,1,6.46-1.156,12.776,12.776,0,0,1,2.461.232L253.215,222.771a21.6,21.6,0,0,0-5.538-11.861v.077a14.444,14.444,0,0,0-10.383-4.391Zm24.458,17.409,4.384,32.506.308,2.312H190.532l.307-2.312,4.384-32.506a12.567,12.567,0,0,1,2.23-5.779,5.728,5.728,0,0,1,4.768-2.619h35.071a5.83,5.83,0,0,1,4.769,2.619,13.3,13.3,0,0,1,2.154,5.779" transform="translate(-38.484 -46.984)" fill="#746180" fill-rule="evenodd"/></g></g><g id="Gruppe_24473" data-name="Gruppe 24473" transform="translate(627.26 422.635)"><g id="Gruppe_24468" data-name="Gruppe 24468" clip-path="url(#clip-path-2)"><path id="Pfad_46087" data-name="Pfad 46087" d="M215.645,40.763A40.763,40.763,0,1,1,174.883,0a40.763,40.763,0,0,1,40.763,40.763" transform="translate(-78.513)" fill="#746180"/><path id="Pfad_46088" data-name="Pfad 46088" d="M188.936,255.108,147.6,213.776a32.154,32.154,0,0,0-22.886-9.48H67.931a32.154,32.154,0,0,0-22.886,9.48L3.8,255.017a12.988,12.988,0,1,0,18.369,18.368L56.4,239.155v28.03h79.935V239.247l34.23,34.23a12.988,12.988,0,1,0,18.368-18.368" transform="translate(0 -119.593)" fill="#746180"/><path id="Pfad_46089" data-name="Pfad 46089" d="M98.8,439.4l14.677-15.471L90.148,401.3,66.525,424.827a12.989,12.989,0,0,0-.221,18.181l29.941,31.306a12.989,12.989,0,0,0,18.773-17.955Z" transform="translate(-36.705 -233.594)" fill="#746180"/><path id="Pfad_46090" data-name="Pfad 46090" d="M287.125,439.4l-25.808-20.777,25.074-26.589L319.4,424.827a12.989,12.989,0,0,1,.221,18.181l-29.941,31.306A12.989,12.989,0,0,1,270.9,456.359Z" transform="translate(-156.476 -233.594)" fill="#746180"/><path id="Pfad_46095" data-name="Pfad 46095" d="M-.393,0H8.592V25H-.393Z" transform="translate(127.74 147.365)" fill="#746180"/><rect id="Rechteck_13024" data-name="Rechteck 13024" width="45" height="9" transform="translate(69.74 184.365)" fill="#746180"/></g></g><g id="Gruppe_24469" data-name="Gruppe 24469" transform="translate(618.26 417.635)"><g id="Gruppe_24468-2" data-name="Gruppe 24468" clip-path="url(#clip-path-3)"><path id="Pfad_46087-2" data-name="Pfad 46087" d="M215.645,40.763A40.763,40.763,0,1,1,174.883,0a40.763,40.763,0,0,1,40.763,40.763" transform="translate(-78.513)" fill="#967ea6"/><path id="Pfad_46088-2" data-name="Pfad 46088" d="M188.936,255.108,147.6,213.776a32.154,32.154,0,0,0-22.886-9.48H67.931a32.154,32.154,0,0,0-22.886,9.48L3.8,255.017a12.988,12.988,0,1,0,18.369,18.368L56.4,239.155v33.051h79.935V239.247l34.23,34.23a12.988,12.988,0,1,0,18.368-18.368" transform="translate(0 -119.593)" fill="#967ea6"/><path id="Pfad_46089-2" data-name="Pfad 46089" d="M98.8,439.4l17.955-16.027L92.42,399.039l-25.9,25.788a12.989,12.989,0,0,0-.221,18.181l29.941,31.306a12.989,12.989,0,0,0,18.773-17.955Z" transform="translate(-36.705 -233.594)" fill="#967ea6"/><path id="Pfad_46090-2" data-name="Pfad 46090" d="M287.125,439.4l-17.955-16.027L293.5,399.039l25.9,25.788a12.989,12.989,0,0,1,.221,18.181l-29.941,31.306A12.989,12.989,0,0,1,270.9,456.359Z" transform="translate(-156.476 -233.594)" fill="#967ea6"/></g></g><g id="Gruppe_24471" data-name="Gruppe 24471" transform="translate(902.5 384.641)"><g id="Gruppe_24470-2" data-name="Gruppe 24470" clip-path="url(#clip-path-4)"><path id="Pfad_46091-2" data-name="Pfad 46091" d="M64.214,178.622,107.593,126.7l9.69,12.632c13.307,12.788,24.305,22.956,38.686,36.746,3.923,3.852,8.154,6.086,13.23,1.541,4.462-4.006,3.538-8.551.154-12.558-9.306-10.784-17.766-20.874-25.226-30.042L121.976,88.8a39.7,39.7,0,0,0-2.154-4.467h-.077a5.909,5.909,0,0,0-1.306-2,23.182,23.182,0,0,0-2.847-3.311c-10.153-10.169-27.765-9.707-36.917,1.463L18.914,153.123a29.118,29.118,0,0,0-6.46,14.637c-.077.77-.155,1.616-.232,2.387C8.915,207.2,1.685,278.223.07,310.962c-.461,7.934,1.153,14.713,10.845,15.947,8.536,1,12.612-4.238,13.767-11.787,4.922-33.664,11.844-72.8,16.228-96.444,4.538,8.78,8.692,17.794,15.3,31.814-1.768,19.8-3.23,38.054-3.844,50.609-.462,7.934,1.153,14.715,10.844,15.947,8.614,1,12.614-4.238,13.767-11.787,1.77-12.17,3.616-24.342,5.615-36.361,4.693-29.731,4.077-21.337-5.69-50.377-5.308-15.946-11.154-34.126-12.692-39.9" transform="translate(0 -16.313)" fill="#d4eace" fill-rule="evenodd"/><path id="Pfad_46092-2" data-name="Pfad 46092" d="M172.273,0a32.624,32.624,0,1,1-32.611,32.585A32.572,32.572,0,0,1,172.273,0" transform="translate(-31.762)" fill="#d4eace" fill-rule="evenodd"/><path id="Pfad_46093-2" data-name="Pfad 46093" d="M219.758,206.6H202.222a14.182,14.182,0,0,0-10.383,4.391v-.077a20.6,20.6,0,0,0-5.538,11.861q-8.537,63.551-17.074,127.182c-.23,5.162,8.614,5.393,9,0l11-81.578.231-1.77h60.529l.232,1.77,7.844,58.314a20.023,20.023,0,0,1,6.46-1.156,12.776,12.776,0,0,1,2.461.232L253.215,222.771a21.6,21.6,0,0,0-5.538-11.861v.077a14.444,14.444,0,0,0-10.383-4.391Zm24.458,17.409,4.384,32.506.308,2.312H190.532l.307-2.312,4.384-32.506a12.567,12.567,0,0,1,2.23-5.779,5.728,5.728,0,0,1,4.768-2.619h35.071a5.83,5.83,0,0,1,4.769,2.619,13.3,13.3,0,0,1,2.154,5.779" transform="translate(-38.484 -46.984)" fill="#d4eace" fill-rule="evenodd"/></g></g></g></g></svg>