<svg xmlns="http://www.w3.org/2000/svg" width="621.006" height="617.003" viewBox="0 0 621.006 617.003"><g id="Behinderungen" transform="translate(-544.998 -231.498)"><g id="Behinderung" transform="translate(-6 -0.5)"><g id="Religion"><g id="Geschlecht"><g id="Gruppe_24462" data-name="Gruppe 24462"><path id="Pfad_46084" data-name="Pfad 46084" d="M0,0H621V617H0Z" transform="translate(551 232)" fill="#967ea6"/><path id="Schnittmenge_68" data-name="Schnittmenge 68" d="M20903.887,1703,20585,1415.878v-99.915L21014.85,1703Z" transform="translate(-20034 -854)" fill="#746180"/></g></g></g><path id="Schnittmenge_66" data-name="Schnittmenge 66" d="M21118.232,1703l-355.766-320.332v-99.914L21229.2,1703Z" transform="translate(-20211.465 -854)" fill="#cf7280"/><path id="Schnittmenge_61" data-name="Schnittmenge 61" d="M20681.379,1241.221h110.961L21188,1597.476v99.911Z" transform="translate(-20016 -1009.221)" fill="#3bb07d"/><path id="Schnittmenge_62" data-name="Schnittmenge 62" d="M20616.832,1186.047h110.963l506.623,456.163v99.911Z" transform="translate(-20062.414 -954.044)" fill="#d4eace"/><path id="Schnittmenge_63" data-name="Schnittmenge 63" d="M20616.832,1186.047h110.963l506.623,456.163v99.911Z" transform="translate(-20062.414 -954.044)" fill="#7bc2e0"/><path id="Schnittmenge_64" data-name="Schnittmenge 64" d="M21240.795,1747.864l-577.7-520.158v-96.841h3.41l617.59,556.08v60.92Z" transform="translate(-20112.102 -898.866)" fill="#e8e8e8"/><path id="Schnittmenge_65" data-name="Schnittmenge 65" d="M21179.516,1703l-466.732-420.251v-99.911l577.7,520.163Z" transform="translate(-20161.781 -854)" fill="#eede77"/></g></g></svg>