<svg xmlns="http://www.w3.org/2000/svg" xmlns:xlink="http://www.w3.org/1999/xlink" width="621" height="617" viewBox="0 0 621 617"><defs><clipPath id="clip-path"><rect id="Rechteck_13011" data-name="Rechteck 13011" width="354.626" height="390.038" fill="#514658" stroke="#514658" stroke-width="8"/></clipPath><clipPath id="clip-path-2"><rect id="Rechteck_13011-2" data-name="Rechteck 13011" width="354.626" height="390.038" fill="#967ea6" stroke="#967ea6" stroke-width="8"/></clipPath></defs><g id="Geschlecht" transform="translate(-551 -232)"><g id="Gruppe_24462" data-name="Gruppe 24462"><path id="Pfad_46084" data-name="Pfad 46084" d="M0,0H621V617H0Z" transform="translate(551 232)" fill="#d4eace"/><g id="Gruppe_24461" data-name="Gruppe 24461" transform="translate(-23.184 -4.981)"><g id="Gruppe_24456" data-name="Gruppe 24456" transform="translate(716.186 354.981)" clip-path="url(#clip-path)"><path id="Pfad_46085" data-name="Pfad 46085" d="M56.539,71.619,16.53,31.07a.515.515,0,0,0-.887.359V64.921a2.386,2.386,0,0,1-.587,1.57q-4.152,4.8-9.37,3.691Q.186,69.013.15,62.968-.03,38.182.006,9.358a3.78,3.78,0,0,1,.132-.887,11.823,11.823,0,0,1,6.95-8.2A3.58,3.58,0,0,1,8.466,0Q39.506.144,72.584.024a5.251,5.251,0,0,1,2.948,1.57c2.972,2.528,4.817,5.5,2.828,9.466a8.676,8.676,0,0,1-5.117,4.122,3.059,3.059,0,0,1-1.03.18q-4.026-.018-46.947,0a6.377,6.377,0,0,0-.923.048,1.208,1.208,0,0,0-.719,2.049L68.33,62.764a.47.47,0,0,0,.659.012Q81.265,50.859,91.3,41a7.909,7.909,0,0,1,6.483-1.462,8.4,8.4,0,0,1,5.919,6.734,2.16,2.16,0,0,1-.108,1.2,13.532,13.532,0,0,1-2.2,4.158q-14,13.444-22.048,20.658a.6.6,0,0,0-.048.875L95.806,91.354a1.4,1.4,0,0,0,1.989.084,126.89,126.89,0,0,1,59.852-31.226c.851-.192,2.708-.455,5.584-.779,16.751-1.893,33.695-1.773,49.559,3.355a120.86,120.86,0,0,1,41.016,22.767,1.635,1.635,0,0,0,2.241-.108L321.471,18.7a1.6,1.6,0,0,1,.228-.168l2.72-1.678a.764.764,0,0,0-.347-1.414q-3.864-.27-41.375-.072c-3.008.012-5.164-.767-6.494-2.349a3.437,3.437,0,0,1-.611-1.126Q272.768,2.534,281.929.132a3.4,3.4,0,0,1,.983-.12q5.949.054,61.218.108A8.445,8.445,0,0,1,348.875,1.7a12.735,12.735,0,0,1,5.716,8.28,2.075,2.075,0,0,1,.036.383l-.012,61.063a1.361,1.361,0,0,1-.036.3q-1.6,8.358-9.682,6.938a2.671,2.671,0,0,1-.983-.383q-4.35-2.822-4.338-7.094.072-17.956.156-44.838a.483.483,0,0,0-.791-.371,53.232,53.232,0,0,0-4.254,3.727Q307.979,56.4,269.839,93.331c-.911.875-2.516,1.666-3.511,2.564a.848.848,0,0,0-.072,1.186c18.573,20.945,30.771,50.913,29.441,79.24s-11.108,52.855-29.309,73.572a131.946,131.946,0,0,1-22.5,19.723,110.426,110.426,0,0,1-58.151,20.55,1.276,1.276,0,0,0-1.2,1.282v41.819a.558.558,0,0,0,.551.551q6.74-.036,33.179.024c3.379.012,5.644.551,6.782,1.642a7.939,7.939,0,0,1,2.588,4.086,7.7,7.7,0,0,1-5.692,8.8c-.431.1-2.648.144-6.65.156q-20.831.018-29.764-.036a.959.959,0,0,0-.971.971v34.593a2.125,2.125,0,0,1-.252,1.007q-2.948,5.464-7.753,4.937c-4.314-.467-6.506-2.852-6.566-7.13q-.306-21.8.132-33.647a.756.756,0,0,0-.779-.779q-12.743.216-30.687-.072a5.328,5.328,0,0,1-3.942-1.857q-4.152-4.547-.4-10.077a5.641,5.641,0,0,1,4.925-2.576q24.426-.054,29.74-.1a.918.918,0,0,0,.9-.923V291.03a.851.851,0,0,0-.8-.839,87.664,87.664,0,0,1-25-4.853Q108.3,273.044,85.8,244.921a107.781,107.781,0,0,1-22.767-51.2q-7.243-45.527,18.561-82.439c1.989-2.828,4.062-5.164,5.584-8.076a1.166,1.166,0,0,0-.2-1.342L68.953,83.613a1.1,1.1,0,0,0-1.522-.036c-9.083,8.484-13.169,12.354-17.818,17.171-2.744,2.864-6.674,6.53-10.976,4.889q-7.01-2.7-4.829-10.221a2.722,2.722,0,0,1,.731-1.222l22-21.7a.622.622,0,0,0,0-.875M274.08,210.867c7.872-19.819,10.125-43.976,3.475-64.933q-12.995-40.908-50.278-61.182A91.576,91.576,0,0,0,199,74.483q-43.892-7.477-80.007,18.393a113.94,113.94,0,0,0-27.907,29.609,99.409,99.409,0,0,0-13.864,34.653C74.429,171.193,75.3,184.3,77.9,196.7a84.183,84.183,0,0,0,11.4,28.147q7.423,11.665,12.246,16.811c18.741,19.975,45.186,33.479,73.057,34.234a114.351,114.351,0,0,0,21.389-1.27,89.334,89.334,0,0,0,20.514-6.051c25.355-10.82,47.331-31.945,57.576-57.707" fill="#746180" stroke="#746180" stroke-width="8"/></g><g id="Gruppe_24458" data-name="Gruppe 24458" transform="translate(698.186 344.981)"><g id="Gruppe_24456-2" data-name="Gruppe 24456" clip-path="url(#clip-path-2)"><path id="Pfad_46085-2" data-name="Pfad 46085" d="M56.539,71.619,16.53,31.07a.515.515,0,0,0-.887.359V64.921a2.386,2.386,0,0,1-.587,1.57q-4.152,4.8-9.37,3.691Q.186,69.013.15,62.968-.03,38.182.006,9.358a3.78,3.78,0,0,1,.132-.887,11.823,11.823,0,0,1,6.95-8.2A3.58,3.58,0,0,1,8.466,0Q39.506.144,72.584.024a5.251,5.251,0,0,1,2.948,1.57c2.972,2.528,4.817,5.5,2.828,9.466a8.676,8.676,0,0,1-5.117,4.122,3.059,3.059,0,0,1-1.03.18q-4.026-.018-46.947,0a6.377,6.377,0,0,0-.923.048,1.208,1.208,0,0,0-.719,2.049L68.33,62.764a.47.47,0,0,0,.659.012Q81.265,50.859,91.3,41a7.909,7.909,0,0,1,6.483-1.462,8.4,8.4,0,0,1,5.919,6.734,2.16,2.16,0,0,1-.108,1.2,13.532,13.532,0,0,1-2.2,4.158q-14,13.444-22.048,20.658a.6.6,0,0,0-.048.875L95.806,91.354a1.4,1.4,0,0,0,1.989.084,126.89,126.89,0,0,1,59.852-31.226c.851-.192,2.708-.455,5.584-.779,16.751-1.893,33.695-1.773,49.559,3.355a120.86,120.86,0,0,1,41.016,22.767,1.635,1.635,0,0,0,2.241-.108L321.471,18.7a1.6,1.6,0,0,1,.228-.168l2.72-1.678a.764.764,0,0,0-.347-1.414q-3.864-.27-41.375-.072c-3.008.012-5.164-.767-6.494-2.349a3.437,3.437,0,0,1-.611-1.126Q272.768,2.534,281.929.132a3.4,3.4,0,0,1,.983-.12q5.949.054,61.218.108A8.445,8.445,0,0,1,348.875,1.7a12.735,12.735,0,0,1,5.716,8.28,2.075,2.075,0,0,1,.036.383l-.012,61.063a1.361,1.361,0,0,1-.036.3q-1.6,8.358-9.682,6.938a2.671,2.671,0,0,1-.983-.383q-4.35-2.822-4.338-7.094.072-17.956.156-44.838a.483.483,0,0,0-.791-.371,53.232,53.232,0,0,0-4.254,3.727Q307.979,56.4,269.839,93.331c-.911.875-2.516,1.666-3.511,2.564a.848.848,0,0,0-.072,1.186c18.573,20.945,30.771,50.913,29.441,79.24s-11.108,52.855-29.309,73.572a131.946,131.946,0,0,1-22.5,19.723,110.426,110.426,0,0,1-58.151,20.55,1.276,1.276,0,0,0-1.2,1.282v41.819a.558.558,0,0,0,.551.551q6.74-.036,33.179.024c3.379.012,5.644.551,6.782,1.642a7.939,7.939,0,0,1,2.588,4.086,7.7,7.7,0,0,1-5.692,8.8c-.431.1-2.648.144-6.65.156q-20.831.018-29.764-.036a.959.959,0,0,0-.971.971v34.593a2.125,2.125,0,0,1-.252,1.007q-2.948,5.464-7.753,4.937c-4.314-.467-6.506-2.852-6.566-7.13q-.306-21.8.132-33.647a.756.756,0,0,0-.779-.779q-12.743.216-30.687-.072a5.328,5.328,0,0,1-3.942-1.857q-4.152-4.547-.4-10.077a5.641,5.641,0,0,1,4.925-2.576q24.426-.054,29.74-.1a.918.918,0,0,0,.9-.923V291.03a.851.851,0,0,0-.8-.839,87.664,87.664,0,0,1-25-4.853Q108.3,273.044,85.8,244.921a107.781,107.781,0,0,1-22.767-51.2q-7.243-45.527,18.561-82.439c1.989-2.828,4.062-5.164,5.584-8.076a1.166,1.166,0,0,0-.2-1.342L68.953,83.613a1.1,1.1,0,0,0-1.522-.036c-9.083,8.484-13.169,12.354-17.818,17.171-2.744,2.864-6.674,6.53-10.976,4.889q-7.01-2.7-4.829-10.221a2.722,2.722,0,0,1,.731-1.222l22-21.7a.622.622,0,0,0,0-.875M274.08,210.867c7.872-19.819,10.125-43.976,3.475-64.933q-12.995-40.908-50.278-61.182A91.576,91.576,0,0,0,199,74.483q-43.892-7.477-80.007,18.393a113.94,113.94,0,0,0-27.907,29.609,99.409,99.409,0,0,0-13.864,34.653C74.429,171.193,75.3,184.3,77.9,196.7a84.183,84.183,0,0,0,11.4,28.147q7.423,11.665,12.246,16.811c18.741,19.975,45.186,33.479,73.057,34.234a114.351,114.351,0,0,0,21.389-1.27,89.334,89.334,0,0,0,20.514-6.051c25.355-10.82,47.331-31.945,57.576-57.707" fill="#967ea6" stroke="#967ea6" stroke-width="8"/></g></g></g></g></g></svg>