<svg xmlns="http://www.w3.org/2000/svg" width="236.516" height="245.486" viewBox="0 0 236.516 245.486">
  <g id="Gruppe_25263" data-name="Gruppe 25263" transform="translate(-5936.202 16223.604)">
    <g id="Gruppe_25262" data-name="Gruppe 25262">
      <circle id="Ellipse_2404" data-name="Ellipse 2404" cx="54" cy="54" r="54" transform="translate(6003 -16132)" fill="#bfdfb6"/>
      <rect id="Rechteck_13627" data-name="Rechteck 13627" width="29" height="29" transform="translate(5960 -16183)" fill="#f8b8e4"/>
      <rect id="Rechteck_13628" data-name="Rechteck 13628" width="29" height="29" transform="translate(5960 -16132)" fill="#f8b8e4"/>
      <rect id="Rechteck_13629" data-name="Rechteck 13629" width="29" height="29" transform="translate(5960 -16084)" fill="#f8b8e4"/>
      <path id="Vereinigungsmenge_674" data-name="Vereinigungsmenge 674" d="M194.221,230.225l-4.905-5.509-13.573-13.573a3.842,3.842,0,0,1-.259-.287q-.147-.12-.284-.255l-14.757-14.758a53.447,53.447,0,0,1-49.567-1.329H3.733A3.733,3.733,0,0,1,0,190.779V5.439A3.734,3.734,0,0,1,3.733,1.7h98.036a6.838,6.838,0,0,1,2.64,1.094l43.445,46.966s2.674,41.918,1.283,47.751c9.283,2.3,18.489,5.992,25.423,12.927a53.329,53.329,0,0,1,10.12,61.16l14.753,14.753c.078.079.151.162.221.245a3.967,3.967,0,0,1,.321.284l22.573,22.586q.194.193.381.392l12.358,11.78-11.7,10.94q-.49.585-1.036,1.132a17.188,17.188,0,0,1-2.046,1.748l-11.26,10.525Zm-19.661-44.5a53.309,53.309,0,0,1-7.459,6.212l10.74,10.74L191.513,189l-10.736-10.737A53.244,53.244,0,0,1,174.56,185.728Zm-69.991-70a45.809,45.809,0,1,0,32.356-13.381A45.818,45.818,0,0,0,104.568,115.723Zm-97.1,71.322H100.66c-.463-.43-.921-.868-1.372-1.318a52.917,52.917,0,0,1-14.173-25.51H54.41v9.218a3.733,3.733,0,0,1-3.733,3.734H24.787a3.733,3.733,0,0,1-3.734-3.734V143.546a3.733,3.733,0,0,1,3.734-3.733H50.676a3.733,3.733,0,0,1,3.733,3.733v9.205H83.928a53.138,53.138,0,0,1,15.36-42.308l.065-.063H54.41v9.205a3.733,3.733,0,0,1-3.733,3.733H24.787a3.733,3.733,0,0,1-3.734-3.733V93.708a3.733,3.733,0,0,1,3.734-3.733H50.676a3.733,3.733,0,0,1,3.733,3.733v9.205h54.324a52.879,52.879,0,0,1,28.191-8.056c1.828,0,5.438.275,5.438.275l-1.7-39.8L101.769,53.5a3.733,3.733,0,0,1-3.733-3.734V9.172H7.466ZM28.52,165.7H46.943V147.279H28.52Zm0-49.851H46.943V97.441H28.52ZM105.5,46.031l29.424,1.528L105.5,14.452ZM156.08,179.07V139.99a19.15,19.15,0,1,0-38.3,0V179.07a3.734,3.734,0,0,1-7.467,0V139.99a26.617,26.617,0,1,1,53.234,0V179.07a3.734,3.734,0,0,1-7.467,0Zm-11.96,0V141.312c0-3.227-3.295-5.954-7.2-5.954s-7.2,2.726-7.2,5.954c0,39.82-1.671,41.492-3.733,41.492a3.733,3.733,0,0,1-3.734-3.733V141.312c0-7.4,6.578-13.421,14.664-13.421s14.663,6.02,14.663,13.421V179.07a3.734,3.734,0,0,1-7.467,0Zm-10.93,0V144.483a3.734,3.734,0,0,1,7.467,0V179.07c0,1.031-1.867,1.546-3.734,1.546S133.19,180.1,133.19,179.07ZM24.787,73.48a3.733,3.733,0,0,1-3.734-3.733V43.857a3.733,3.733,0,0,1,3.734-3.733H50.676a3.733,3.733,0,0,1,3.733,3.733v9.219H87.575a3.733,3.733,0,0,1,0,7.466H54.41v9.205a3.733,3.733,0,0,1-3.733,3.733Zm3.733-7.466H46.943V47.591H28.52Z" transform="translate(5936.702 -16224.809)" fill="#746180" stroke="rgba(0,0,0,0)" stroke-miterlimit="10" stroke-width="1"/>
    </g>
  </g>
</svg>
