<svg xmlns="http://www.w3.org/2000/svg" width="590" height="580.016" viewBox="0 0 590 580.016">
  <g id="Gruppe_25255" data-name="Gruppe 25255" transform="translate(-5268.5 19505.48)">
    <circle id="Ellipse_2402" data-name="Ellipse 2402" cx="212.191" cy="212.191" r="212.191" transform="translate(5268.5 -19505.48)" fill="#fbdbf1" opacity="0.8"/>
    <circle id="Ellipse_2403" data-name="Ellipse 2403" cx="176.006" cy="176.006" r="176.006" transform="translate(5506.488 -19277.477)" fill="#967ea6" opacity="0.38"/>
    <g id="Symbols" transform="translate(5332.986 -19337.467)">
      <g id="Header" transform="translate(0.788 0.466)">
        <g id="Group-9" transform="translate(0 0)">
          <path id="Fill-1" d="M174.765,46.167a4.889,4.889,0,0,0-.676-.57,2.1,2.1,0,0,0-1.28-.359,1.661,1.661,0,0,0-1.139.35,1.071,1.071,0,0,0-.4.836,1.5,1.5,0,0,0,.36,1.033,4.971,4.971,0,0,0,1.1.871l.7.42a6.847,6.847,0,0,1,1.79,1.451,3.286,3.286,0,0,1-.266,4.242,3.6,3.6,0,0,1-2.641.906,4.486,4.486,0,0,1-1.186-.139,4.844,4.844,0,0,1-.894-.326,2.867,2.867,0,0,1-.643-.406,4.288,4.288,0,0,1-.416-.406l.9-1.488c.094.094.207.2.339.326a2.988,2.988,0,0,0,.478.359,2.818,2.818,0,0,0,.629.291,2.568,2.568,0,0,0,.813.117,1.93,1.93,0,0,0,1.278-.373,1.138,1.138,0,0,0,.444-.906,1.985,1.985,0,0,0-.105-.686,1.54,1.54,0,0,0-.313-.523,3.077,3.077,0,0,0-.512-.441c-.2-.139-.436-.295-.7-.465l-.7-.441a6.748,6.748,0,0,1-1.64-1.418,2.962,2.962,0,0,1-.591-1.906,2.677,2.677,0,0,1,.245-1.15,2.715,2.715,0,0,1,.684-.906,3.344,3.344,0,0,1,1.035-.6,3.629,3.629,0,0,1,1.269-.221,4.3,4.3,0,0,1,1.116.127,3.318,3.318,0,0,1,.8.326,3.37,3.37,0,0,1,.557.394c.149.133.267.244.361.338Zm-10.866-1a1.886,1.886,0,0,0-1.6.838,4.54,4.54,0,0,0-.7,2.416h4.07a2.737,2.737,0,0,0,.034-.338c.008-.146.011-.3.011-.475a3.031,3.031,0,0,0-.463-1.8,1.568,1.568,0,0,0-1.351-.639Zm3.537,2.51c0,.482-.015.894-.045,1.244s-.063.654-.092.918h-5.7a4.952,4.952,0,0,0,.846,2.906,2.649,2.649,0,0,0,2.179.93,3.111,3.111,0,0,0,.883-.117,3.2,3.2,0,0,0,.685-.279,3.259,3.259,0,0,0,.488-.324c.133-.109.228-.2.292-.256l.7,1.324c-.078.078-.194.19-.35.338a3.221,3.221,0,0,1-.629.441,4.474,4.474,0,0,1-.977.383,5.086,5.086,0,0,1-1.372.162,4.965,4.965,0,0,1-1.9-.348,3.609,3.609,0,0,1-1.44-1.08,5.263,5.263,0,0,1-.92-1.859,9.913,9.913,0,0,1-.326-2.709,8.66,8.66,0,0,1,.339-2.568A5.109,5.109,0,0,1,161.015,45a3.681,3.681,0,0,1,1.35-1.035,4.062,4.062,0,0,1,1.653-.336,3.2,3.2,0,0,1,2.511,1.01,4.413,4.413,0,0,1,.907,3.033Zm-14.029,6a2.455,2.455,0,0,0,.789-.117,2.324,2.324,0,0,0,.606-.291,2.413,2.413,0,0,0,.433-.359,2.7,2.7,0,0,0,.266-.326V45.7a2.893,2.893,0,0,0-.591-.279,2.69,2.69,0,0,0-.851-.115,3.328,3.328,0,0,0-1.22.221,2.374,2.374,0,0,0-.99.73,3.792,3.792,0,0,0-.663,1.326,7,7,0,0,0-.245,2,8.072,8.072,0,0,0,.2,1.941,3.579,3.579,0,0,0,.548,1.254,2.093,2.093,0,0,0,.792.686,2.125,2.125,0,0,0,.928.211Zm-4.42-4.021a7.889,7.889,0,0,1,.442-2.836,5.206,5.206,0,0,1,1.141-1.836,3.954,3.954,0,0,1,1.581-.988,5.639,5.639,0,0,1,1.768-.291,4.591,4.591,0,0,1,.93.082,3.206,3.206,0,0,1,.651.2V38.638l1.886-.211V55.069h-1.724V53.883h-.044a2.7,2.7,0,0,1-.256.383,2.64,2.64,0,0,1-.514.488,3.051,3.051,0,0,1-.815.418,3.348,3.348,0,0,1-1.139.174,3.673,3.673,0,0,1-1.5-.312,3.237,3.237,0,0,1-1.244-1,5.2,5.2,0,0,1-.849-1.766,9.48,9.48,0,0,1-.314-2.615ZM144.8,55.069V47.885a3.381,3.381,0,0,0-.475-2.033,1.728,1.728,0,0,0-1.455-.615,2.258,2.258,0,0,0-1.4.418,4.985,4.985,0,0,0-.883.814v8.6H138.7V43.913h1.721v1.254h.047a2.243,2.243,0,0,1,.3-.406,2.925,2.925,0,0,1,.6-.512,4.275,4.275,0,0,1,.885-.43,3.373,3.373,0,0,1,1.163-.185,3.934,3.934,0,0,1,1.35.221,2.4,2.4,0,0,1,1.024.709,3.41,3.41,0,0,1,.65,1.265,6.712,6.712,0,0,1,.233,1.918v7.322Zm-8.98,0H134.1V53.813h-.044a2.343,2.343,0,0,1-.3.406,3.059,3.059,0,0,1-.593.512,3.936,3.936,0,0,1-.873.43,3.286,3.286,0,0,1-1.139.186,3.77,3.77,0,0,1-1.337-.221,2.448,2.448,0,0,1-1.014-.707,3.292,3.292,0,0,1-.638-1.267,7.125,7.125,0,0,1-.22-1.918v-7.32h1.884v7.181a3.327,3.327,0,0,0,.454,1.986,1.66,1.66,0,0,0,1.408.594,2.27,2.27,0,0,0,1.372-.408,4.779,4.779,0,0,0,.883-.8V43.913h1.884Zm-12.468-4.486a2.609,2.609,0,0,0-.851-2.057,3.537,3.537,0,0,0-2.432-.756H118.7v5.625h1.256a3.869,3.869,0,0,0,2.594-.709,2.655,2.655,0,0,0,.8-2.1Zm-.3-7.39a2.371,2.371,0,0,0-.792-1.836,3.61,3.61,0,0,0-2.489-.723H118.7v5.533h1.047a3.476,3.476,0,0,0,2.467-.791,2.863,2.863,0,0,0,.836-2.184Zm2.046-.07a4.638,4.638,0,0,1-.209,1.465,3.477,3.477,0,0,1-.57,1.08,2.964,2.964,0,0,1-.838.732,3.989,3.989,0,0,1-.988.418v.047a3.494,3.494,0,0,1,1.175.441,3.665,3.665,0,0,1,.954.814,3.806,3.806,0,0,1,.651,1.148,4.169,4.169,0,0,1,.245,1.455,4.531,4.531,0,0,1-.326,1.742,3.539,3.539,0,0,1-1.013,1.371,4.9,4.9,0,0,1-1.734.906,8.432,8.432,0,0,1-2.488.326h-3.281V39.032h3.094a8.887,8.887,0,0,1,2.43.289,4.573,4.573,0,0,1,1.664.826,3.062,3.062,0,0,1,.943,1.289,4.686,4.686,0,0,1,.29,1.685Zm-17.076,3.045a4.814,4.814,0,0,0-.674-.57,2.1,2.1,0,0,0-1.279-.359,1.661,1.661,0,0,0-1.14.35,1.073,1.073,0,0,0-.4.836,1.5,1.5,0,0,0,.362,1.033,5.042,5.042,0,0,0,1.1.871l.7.42a6.872,6.872,0,0,1,1.793,1.451,3.041,3.041,0,0,1,.651,2.012,3.006,3.006,0,0,1-.921,2.23,3.594,3.594,0,0,1-2.639.906,4.515,4.515,0,0,1-1.187-.139,5.043,5.043,0,0,1-.9-.326,2.835,2.835,0,0,1-.639-.406,4.265,4.265,0,0,1-.42-.406l.909-1.488c.092.094.205.2.336.326a3.007,3.007,0,0,0,.477.359,2.786,2.786,0,0,0,.63.291,2.544,2.544,0,0,0,.813.117,1.934,1.934,0,0,0,1.278-.373,1.14,1.14,0,0,0,.442-.906,2.01,2.01,0,0,0-.1-.686,1.559,1.559,0,0,0-.315-.523,2.982,2.982,0,0,0-.512-.441c-.2-.139-.434-.295-.7-.465l-.7-.441a6.719,6.719,0,0,1-1.64-1.418,2.965,2.965,0,0,1-.594-1.906,2.657,2.657,0,0,1,.931-2.057,3.316,3.316,0,0,1,1.036-.6,3.614,3.614,0,0,1,1.267-.221,4.333,4.333,0,0,1,1.118.127,3.332,3.332,0,0,1,.8.326,3.417,3.417,0,0,1,.557.394c.149.133.27.244.362.338Zm-10.864-1A1.888,1.888,0,0,0,95.548,46a4.569,4.569,0,0,0-.7,2.416h4.072a3.355,3.355,0,0,0,.035-.338c.008-.146.01-.3.01-.475a3.02,3.02,0,0,0-.465-1.8,1.562,1.562,0,0,0-1.349-.639Zm3.537,2.51c0,.482-.016.894-.047,1.244s-.061.654-.092.918h-5.7a4.966,4.966,0,0,0,.85,2.906,2.639,2.639,0,0,0,2.174.93,3.113,3.113,0,0,0,.884-.117,3.193,3.193,0,0,0,.686-.279,3.3,3.3,0,0,0,.489-.324c.133-.109.229-.2.291-.256l.7,1.324c-.078.078-.193.19-.35.338a3.181,3.181,0,0,1-.627.441,4.474,4.474,0,0,1-.978.383,5.088,5.088,0,0,1-1.372.162A4.938,4.938,0,0,1,95.7,55a3.591,3.591,0,0,1-1.443-1.08,5.173,5.173,0,0,1-.919-1.859,9.779,9.779,0,0,1-.326-2.709,8.682,8.682,0,0,1,.336-2.568A5.137,5.137,0,0,1,94.27,45a3.663,3.663,0,0,1,1.349-1.035,4.058,4.058,0,0,1,1.652-.336,3.2,3.2,0,0,1,2.512,1.01,4.422,4.422,0,0,1,.907,3.033Zm-14.029,6a2.482,2.482,0,0,0,.792-.117,2.347,2.347,0,0,0,.6-.291,2.554,2.554,0,0,0,.432-.359,2.588,2.588,0,0,0,.266-.326V45.7a2.874,2.874,0,0,0-.592-.279,2.682,2.682,0,0,0-.849-.115,3.32,3.32,0,0,0-1.222.221,2.374,2.374,0,0,0-.989.73,3.779,3.779,0,0,0-.663,1.326,6.979,6.979,0,0,0-.244,2,8.09,8.09,0,0,0,.2,1.941,3.588,3.588,0,0,0,.547,1.254,2.106,2.106,0,0,0,.79.686,2.14,2.14,0,0,0,.931.211Zm-4.42-4.021a7.926,7.926,0,0,1,.442-2.836,5.255,5.255,0,0,1,1.14-1.836,3.984,3.984,0,0,1,1.583-.988,5.638,5.638,0,0,1,1.767-.291,4.635,4.635,0,0,1,.931.082,3.206,3.206,0,0,1,.651.2V38.638l1.885-.211V55.069H88.917V53.883h-.045a2.67,2.67,0,0,1-.256.383,2.633,2.633,0,0,1-.512.488,3.066,3.066,0,0,1-.815.418,3.355,3.355,0,0,1-1.14.174,3.672,3.672,0,0,1-1.5-.312,3.251,3.251,0,0,1-1.245-1,5.216,5.216,0,0,1-.848-1.766,9.473,9.473,0,0,1-.315-2.615ZM294.3,21.73a1.888,1.888,0,0,0-1.606.838,4.539,4.539,0,0,0-.7,2.416h4.07a2.186,2.186,0,0,0,.036-.338c.008-.146.011-.3.011-.475a3.031,3.031,0,0,0-.465-1.8,1.567,1.567,0,0,0-1.35-.639Zm3.535,2.51c0,.482-.016.894-.045,1.244s-.06.654-.094.918h-5.7a4.963,4.963,0,0,0,.849,2.906,2.64,2.64,0,0,0,2.176.93,3.1,3.1,0,0,0,.883-.117,3.217,3.217,0,0,0,.687-.279,3.322,3.322,0,0,0,.486-.324c.133-.109.232-.2.293-.256l.7,1.324c-.076.078-.193.189-.348.338a3.147,3.147,0,0,1-.63.441,4.394,4.394,0,0,1-.975.383,5.085,5.085,0,0,1-1.372.162,4.948,4.948,0,0,1-1.9-.348,3.6,3.6,0,0,1-1.444-1.08,5.235,5.235,0,0,1-.919-1.859,9.846,9.846,0,0,1-.327-2.709,8.661,8.661,0,0,1,.339-2.568,5.163,5.163,0,0,1,.919-1.777,3.679,3.679,0,0,1,1.35-1.035,4.06,4.06,0,0,1,1.653-.336,3.2,3.2,0,0,1,2.511,1.01,4.413,4.413,0,0,1,.907,3.033Zm-10.607,4.789a1.794,1.794,0,0,0,.2.976.788.788,0,0,0,.689.277,1.768,1.768,0,0,0,.428-.045,1.423,1.423,0,0,0,.269-.094l.164,1.394a4.091,4.091,0,0,1-.512.186,3.445,3.445,0,0,1-1,.117,2.086,2.086,0,0,1-1.537-.582,2.9,2.9,0,0,1-.578-2.068V15.2l1.883-.211Zm-5.3,0a1.776,1.776,0,0,0,.2.976.783.783,0,0,0,.685.277,1.787,1.787,0,0,0,.431-.045,1.4,1.4,0,0,0,.267-.094l.162,1.394a3.993,3.993,0,0,1-.512.186,3.423,3.423,0,0,1-1,.117,2.076,2.076,0,0,1-1.534-.582,2.886,2.886,0,0,1-.582-2.068V15.2l1.884-.211Zm-7.911-7.3a1.884,1.884,0,0,0-1.6.838,4.524,4.524,0,0,0-.7,2.416h4.07a2.146,2.146,0,0,0,.037-.338q.01-.22.01-.475a3.019,3.019,0,0,0-.465-1.8,1.565,1.565,0,0,0-1.35-.639Zm3.537,2.51c0,.482-.016.894-.047,1.244s-.06.654-.094.918h-5.7a4.963,4.963,0,0,0,.849,2.906,2.645,2.645,0,0,0,2.176.93,3.1,3.1,0,0,0,.883-.117,3.268,3.268,0,0,0,.689-.279,3.767,3.767,0,0,0,.489-.324c.13-.109.227-.2.288-.256l.7,1.324c-.076.078-.191.189-.347.338a3.229,3.229,0,0,1-.629.441,4.49,4.49,0,0,1-.979.383,5.085,5.085,0,0,1-1.372.162,4.948,4.948,0,0,1-1.9-.348,3.6,3.6,0,0,1-1.444-1.08,5.262,5.262,0,0,1-.919-1.859,9.846,9.846,0,0,1-.327-2.709,8.661,8.661,0,0,1,.339-2.568,5.163,5.163,0,0,1,.919-1.777,3.679,3.679,0,0,1,1.35-1.035,4.065,4.065,0,0,1,1.653-.336,3.2,3.2,0,0,1,2.511,1.01,4.413,4.413,0,0,1,.909,3.033ZM268.4,22.01H265.96v6.181a3.013,3.013,0,0,0,.3,1.617,1.167,1.167,0,0,0,1.024.43,1.979,1.979,0,0,0,.719-.117,2.437,2.437,0,0,0,.444-.209l.256,1.512a3.383,3.383,0,0,1-.557.289,2.956,2.956,0,0,1-1.189.2,2.765,2.765,0,0,1-2.163-.8,3.955,3.955,0,0,1-.721-2.662V22.01h-1.351V20.754l1.351-.277.209-3.115h1.674v3.115h2.676Zm-8.1.721a5.1,5.1,0,0,0-.676-.57,2.1,2.1,0,0,0-1.28-.359,1.662,1.662,0,0,0-1.141.35,1.075,1.075,0,0,0-.394.836,1.494,1.494,0,0,0,.36,1.033,5.033,5.033,0,0,0,1.107.871l.7.42a6.894,6.894,0,0,1,1.793,1.451A3.284,3.284,0,0,1,260.506,31a3.6,3.6,0,0,1-2.641.906,4.509,4.509,0,0,1-1.188-.139,5.057,5.057,0,0,1-.9-.326,2.864,2.864,0,0,1-.638-.406,4.213,4.213,0,0,1-.421-.406l.909-1.488c.092.094.206.2.337.326a3.124,3.124,0,0,0,.476.36,2.83,2.83,0,0,0,.63.291,2.551,2.551,0,0,0,.815.117,1.937,1.937,0,0,0,1.278-.373,1.145,1.145,0,0,0,.441-.906,2.068,2.068,0,0,0-.1-.685,1.626,1.626,0,0,0-.314-.523,3.035,3.035,0,0,0-.514-.441c-.2-.139-.433-.295-.7-.465l-.7-.441a6.724,6.724,0,0,1-1.641-1.418,2.972,2.972,0,0,1-.593-1.906,2.7,2.7,0,0,1,.243-1.15,2.746,2.746,0,0,1,.687-.906,3.337,3.337,0,0,1,1.037-.6,3.609,3.609,0,0,1,1.269-.221,4.328,4.328,0,0,1,1.116.127,3.351,3.351,0,0,1,.8.326,3.622,3.622,0,0,1,.559.395c.146.133.267.244.36.338Zm-8.143,0a4.993,4.993,0,0,0-.676-.57,2.1,2.1,0,0,0-1.28-.359,1.658,1.658,0,0,0-1.139.35,1.071,1.071,0,0,0-.4.836,1.494,1.494,0,0,0,.36,1.033,5.033,5.033,0,0,0,1.107.871l.7.42a6.893,6.893,0,0,1,1.793,1.451A3.284,3.284,0,0,1,252.364,31a3.6,3.6,0,0,1-2.639.906,4.513,4.513,0,0,1-1.189-.139,5.056,5.056,0,0,1-.9-.326,2.865,2.865,0,0,1-.638-.406,4.212,4.212,0,0,1-.421-.406l.909-1.488c.092.094.206.2.337.326a3.124,3.124,0,0,0,.476.36,2.831,2.831,0,0,0,.63.291,2.551,2.551,0,0,0,.815.117,1.937,1.937,0,0,0,1.278-.373,1.145,1.145,0,0,0,.441-.906,2.068,2.068,0,0,0-.1-.685,1.6,1.6,0,0,0-.314-.523,3.084,3.084,0,0,0-.512-.441c-.2-.139-.434-.295-.7-.465l-.7-.441a6.683,6.683,0,0,1-1.64-1.418,2.964,2.964,0,0,1-.595-1.906,2.656,2.656,0,0,1,.932-2.057,3.31,3.31,0,0,1,1.035-.6,3.61,3.61,0,0,1,1.269-.221,4.328,4.328,0,0,1,1.116.127,3.352,3.352,0,0,1,.8.326,3.547,3.547,0,0,1,.559.395c.146.133.267.244.361.338Zm-9.656,1.209a2.224,2.224,0,0,0-.569-1.721,1.941,1.941,0,0,0-1.338-.51,2.03,2.03,0,0,0-1.395.51,2.2,2.2,0,0,0-.583,1.721,2.2,2.2,0,0,0,.583,1.721,1.98,1.98,0,0,0,1.346.51,2.009,2.009,0,0,0,1.387-.51,2.227,2.227,0,0,0,.569-1.721Zm-2.488,7.343a4.681,4.681,0,0,1-.862-.07,2.917,2.917,0,0,0-.407.279,2.029,2.029,0,0,0-.36.395,2.136,2.136,0,0,0-.269.547,2.363,2.363,0,0,0-.105.732q0,1.79,1.978,1.789a3.942,3.942,0,0,0,2.513-.662,1.933,1.933,0,0,0,.815-1.521,1.274,1.274,0,0,0-.512-1.15,2.467,2.467,0,0,0-1.374-.338Zm5.188-9.343h-1.4a3.79,3.79,0,0,1,.536,2,4.121,4.121,0,0,1-.293,1.592,3.307,3.307,0,0,1-.813,1.2,3.549,3.549,0,0,1-1.233.744,4.469,4.469,0,0,1-1.523.256h-.3a2.135,2.135,0,0,1-.3-.025,2.275,2.275,0,0,0-.583.373.84.84,0,0,0-.3.674.709.709,0,0,0,.269.57,1.376,1.376,0,0,0,.872.221h1.419a6.3,6.3,0,0,1,1.466.162,3.32,3.32,0,0,1,1.176.522,2.494,2.494,0,0,1,.779.92,3,3,0,0,1,.279,1.348,3.547,3.547,0,0,1-.384,1.65,3.8,3.8,0,0,1-1.082,1.277,5.252,5.252,0,0,1-1.7.838,7.729,7.729,0,0,1-2.233.3,4.145,4.145,0,0,1-2.723-.779,2.761,2.761,0,0,1-.93-2.244,2.42,2.42,0,0,1,.222-1.08,3.281,3.281,0,0,1,.523-.789,2.833,2.833,0,0,1,.616-.535c.207-.133.376-.236.5-.314v-.047a1.815,1.815,0,0,1-.721-1.557,1.6,1.6,0,0,1,.173-.767,2.107,2.107,0,0,1,.4-.533,2.439,2.439,0,0,1,.442-.338,2.8,2.8,0,0,1,.339-.174v-.047a3.136,3.136,0,0,1-1.385-1.244,4.066,4.066,0,0,1-.523-2.172,4.091,4.091,0,0,1,.3-1.639,3.285,3.285,0,0,1,.813-1.174,3.346,3.346,0,0,1,1.2-.7,4.586,4.586,0,0,1,1.478-.232,3.933,3.933,0,0,1,1.487.279h3.4Zm-12.7,9.693V24.449a3.368,3.368,0,0,0-.476-2.033,1.723,1.723,0,0,0-1.453-.615,2.253,2.253,0,0,0-1.395.418,5.06,5.06,0,0,0-.885.814v8.6h-1.884V20.477h1.721V21.73h.047a2.17,2.17,0,0,1,.3-.406,2.838,2.838,0,0,1,.6-.512,4.221,4.221,0,0,1,.883-.43,3.373,3.373,0,0,1,1.163-.186,3.927,3.927,0,0,1,1.35.221,2.426,2.426,0,0,1,1.024.709,3.46,3.46,0,0,1,.651,1.266,6.774,6.774,0,0,1,.232,1.918v7.322Zm-8.979,0h-1.721V30.377h-.049a2.287,2.287,0,0,1-.3.406,3.031,3.031,0,0,1-.595.512,3.938,3.938,0,0,1-.872.43,3.286,3.286,0,0,1-1.141.186,3.782,3.782,0,0,1-1.337-.221,2.407,2.407,0,0,1-1.011-.707,3.3,3.3,0,0,1-.642-1.268,7.123,7.123,0,0,1-.22-1.918v-7.32h1.884v7.181a3.326,3.326,0,0,0,.454,1.986,1.662,1.662,0,0,0,1.408.594,2.256,2.256,0,0,0,1.371-.408,4.823,4.823,0,0,0,.888-.8V20.477h1.883Zm-9.68-9.507a1.4,1.4,0,0,0-.3-.115,2.261,2.261,0,0,0-.629-.07,1.929,1.929,0,0,0-1.384.477,2.761,2.761,0,0,0-.711,1.035v8.181h-1.886V20.477h1.722v1.51h.047a3.885,3.885,0,0,1,.3-.638,2.4,2.4,0,0,1,.463-.559,2.09,2.09,0,0,1,.666-.383,2.673,2.673,0,0,1,.919-.141,2.363,2.363,0,0,1,.638.07c.165.047.29.086.384.115Zm-10.955-.395a1.889,1.889,0,0,0-1.607.838,4.553,4.553,0,0,0-.7,2.416h4.071a2.683,2.683,0,0,0,.036-.338q.01-.22.01-.475a3.043,3.043,0,0,0-.463-1.8,1.569,1.569,0,0,0-1.35-.639Zm3.535,2.51c0,.482-.016.894-.045,1.244s-.063.654-.094.918h-5.7a4.963,4.963,0,0,0,.849,2.906,2.64,2.64,0,0,0,2.176.93,3.115,3.115,0,0,0,.885-.117,3.167,3.167,0,0,0,.685-.279,3.369,3.369,0,0,0,.489-.324c.131-.109.228-.2.288-.256l.7,1.324c-.078.078-.193.189-.347.338a3.246,3.246,0,0,1-.63.441,4.442,4.442,0,0,1-.977.383,5.081,5.081,0,0,1-1.374.162,4.951,4.951,0,0,1-1.894-.348,3.591,3.591,0,0,1-1.442-1.08,5.181,5.181,0,0,1-.917-1.859,9.785,9.785,0,0,1-.327-2.709,8.664,8.664,0,0,1,.337-2.568,5.135,5.135,0,0,1,.919-1.777,3.671,3.671,0,0,1,1.351-1.035,4.05,4.05,0,0,1,1.649-.336,3.2,3.2,0,0,1,2.513,1.01,4.413,4.413,0,0,1,.907,3.033Zm-10.98-6.461a1.216,1.216,0,0,1-.932-.371,1.368,1.368,0,0,1-.35-.976,1.336,1.336,0,0,1,.35-.953,1.216,1.216,0,0,1,.932-.371,1.187,1.187,0,0,1,.907.371,1.343,1.343,0,0,1,.35.953,1.375,1.375,0,0,1-.35.976,1.187,1.187,0,0,1-.907.371Zm-.954,13.853h1.884V20.477h-1.884Zm-4.7,0V24.449a3.379,3.379,0,0,0-.476-2.033,1.728,1.728,0,0,0-1.455-.615,2.268,2.268,0,0,0-1.4.418,5.224,5.224,0,0,0-.883.814v8.6H183.7V20.477h1.722V21.73h.047a2.115,2.115,0,0,1,.3-.406,3.008,3.008,0,0,1,.6-.512,4.331,4.331,0,0,1,.886-.43,3.364,3.364,0,0,1,1.162-.186,3.944,3.944,0,0,1,1.351.221,2.4,2.4,0,0,1,1.022.709,3.437,3.437,0,0,1,.653,1.266,6.839,6.839,0,0,1,.23,1.918v7.322Zm-9.912-13.853a1.209,1.209,0,0,1-.928-.371,1.361,1.361,0,0,1-.35-.976,1.33,1.33,0,0,1,.35-.953,1.209,1.209,0,0,1,.928-.371,1.185,1.185,0,0,1,.909.371,1.342,1.342,0,0,1,.348.953,1.374,1.374,0,0,1-.348.976,1.185,1.185,0,0,1-.909.371Zm-.953,13.853h1.886V20.477h-1.886Zm-10.56,0V24.449a3.711,3.711,0,0,0-.4-1.975,1.413,1.413,0,0,0-1.28-.6,2.726,2.726,0,0,0-.825.115,2.911,2.911,0,0,0-.642.291,2.75,2.75,0,0,0-.486.383c-.141.141-.256.264-.35.373v8.6h-1.883V20.477h1.719V21.73h.049a3.506,3.506,0,0,1,.35-.453,3.171,3.171,0,0,1,.578-.512,3.418,3.418,0,0,1,.815-.406,3.143,3.143,0,0,1,1.048-.162,2.806,2.806,0,0,1,2.7,1.486,3.571,3.571,0,0,1,.442-.5,3.665,3.665,0,0,1,.651-.488,3.855,3.855,0,0,1,.838-.359,3.6,3.6,0,0,1,1.024-.139q3.395,0,3.4,3.951v7.484h-1.884V24.449a3.157,3.157,0,0,0-.488-1.975,1.75,1.75,0,0,0-1.444-.6,2.174,2.174,0,0,0-1.316.383,5.067,5.067,0,0,0-.823.732c.029.17.053.353.068.547s.024.4.024.615v7.484Zm-9.682-13.853a1.211,1.211,0,0,1-.928-.371,1.368,1.368,0,0,1-.35-.976,1.336,1.336,0,0,1,.35-.953,1.212,1.212,0,0,1,.928-.371,1.185,1.185,0,0,1,.909.371,1.342,1.342,0,0,1,.348.953,1.374,1.374,0,0,1-.348.976,1.185,1.185,0,0,1-.909.371Zm-.951,13.853h1.884V20.477h-1.884Zm-1.862-9.507a1.535,1.535,0,0,0-.3-.115,2.258,2.258,0,0,0-.63-.07,1.934,1.934,0,0,0-1.384.477,2.789,2.789,0,0,0-.708,1.035v8.181h-1.884V20.477h1.721v1.51h.047a3.527,3.527,0,0,1,.3-.638,2.22,2.22,0,0,1,.465-.559,2.039,2.039,0,0,1,.663-.383,2.682,2.682,0,0,1,.92-.141,2.4,2.4,0,0,1,.64.07c.162.047.288.086.382.115Zm-10.424,3.463,3.84,6.044h-2.257l-3.141-5.207h-.768v5.207h-1.883V15.2l1.883-.211v9.832h.791l3-4.345h2.233Zm-7.537-2.857a4.89,4.89,0,0,0-.676-.57,2.1,2.1,0,0,0-1.28-.359,1.658,1.658,0,0,0-1.139.35,1.071,1.071,0,0,0-.4.836,1.5,1.5,0,0,0,.36,1.033,5.035,5.035,0,0,0,1.107.871l.7.42a6.9,6.9,0,0,1,1.79,1.451A3.284,3.284,0,0,1,138.111,31a3.6,3.6,0,0,1-2.642.906,4.5,4.5,0,0,1-1.186-.139,5.057,5.057,0,0,1-.9-.326,2.9,2.9,0,0,1-.638-.406,4.559,4.559,0,0,1-.42-.406l.907-1.488c.094.094.206.2.339.326a2.918,2.918,0,0,0,.478.36,2.772,2.772,0,0,0,.627.291,2.557,2.557,0,0,0,.815.117,1.937,1.937,0,0,0,1.278-.373,1.141,1.141,0,0,0,.442-.906,2.023,2.023,0,0,0-.105-.685,1.566,1.566,0,0,0-.313-.523,3.084,3.084,0,0,0-.512-.441c-.2-.139-.434-.295-.7-.465l-.7-.441a6.684,6.684,0,0,1-1.64-1.418,2.964,2.964,0,0,1-.595-1.906,2.677,2.677,0,0,1,.245-1.15,2.724,2.724,0,0,1,.687-.906,3.31,3.31,0,0,1,1.035-.6,3.616,3.616,0,0,1,1.269-.221,4.31,4.31,0,0,1,1.116.127,3.338,3.338,0,0,1,.8.326,3.6,3.6,0,0,1,.557.395c.147.133.267.244.36.338Zm-8.632-4.951a1.213,1.213,0,0,1-.93-.371,1.367,1.367,0,0,1-.348-.976,1.335,1.335,0,0,1,.348-.953,1.213,1.213,0,0,1,.93-.371,1.189,1.189,0,0,1,.907.371,1.335,1.335,0,0,1,.348.953,1.367,1.367,0,0,1-.348.976,1.189,1.189,0,0,1-.907.371Zm-.954,13.853h1.886V20.477h-1.886Zm-6.861-1.394a2.469,2.469,0,0,0,.789-.117,2.376,2.376,0,0,0,.606-.291,2.583,2.583,0,0,0,.431-.36,2.716,2.716,0,0,0,.267-.326V22.266a2.932,2.932,0,0,0-.595-.279,2.668,2.668,0,0,0-.847-.115,3.345,3.345,0,0,0-1.223.221,2.38,2.38,0,0,0-.988.731,3.792,3.792,0,0,0-.663,1.326,7.058,7.058,0,0,0-.245,2,7.982,7.982,0,0,0,.2,1.941,3.58,3.58,0,0,0,.546,1.254,2.089,2.089,0,0,0,.791.685,2.129,2.129,0,0,0,.932.211Zm-4.421-4.021a7.888,7.888,0,0,1,.442-2.836,5.2,5.2,0,0,1,1.141-1.836,3.956,3.956,0,0,1,1.581-.988,5.646,5.646,0,0,1,1.769-.291,4.649,4.649,0,0,1,.93.082,3.283,3.283,0,0,1,.651.2V15.2l1.883-.211V31.632h-1.721V30.447h-.047a2.7,2.7,0,0,1-.256.383,2.661,2.661,0,0,1-.51.488,3.067,3.067,0,0,1-.815.418,3.361,3.361,0,0,1-1.139.174,3.662,3.662,0,0,1-1.5-.313,3.228,3.228,0,0,1-1.246-1,5.262,5.262,0,0,1-.851-1.765,9.486,9.486,0,0,1-.313-2.615Zm-3.3-8.437a1.21,1.21,0,0,1-.93-.371,1.368,1.368,0,0,1-.35-.976,1.336,1.336,0,0,1,.35-.953,1.21,1.21,0,0,1,.93-.371,1.189,1.189,0,0,1,.907.371,1.336,1.336,0,0,1,.35.953,1.368,1.368,0,0,1-.35.976,1.189,1.189,0,0,1-.907.371Zm-.954,13.853h1.884V20.477h-1.884Zm-2.14-9.623h-2.442v6.181a3.031,3.031,0,0,0,.3,1.617,1.168,1.168,0,0,0,1.024.43,2,2,0,0,0,.721-.117,2.435,2.435,0,0,0,.442-.209l.256,1.512a3.292,3.292,0,0,1-.559.289,2.936,2.936,0,0,1-1.187.2,2.764,2.764,0,0,1-2.162-.8,3.947,3.947,0,0,1-.721-2.662V22.01h-1.349V20.754l1.349-.277.209-3.115h1.676v3.115h2.674Zm-9.468,9.623V24.449a3.374,3.374,0,0,0-.477-2.033,1.725,1.725,0,0,0-1.455-.615,2.261,2.261,0,0,0-1.4.418,5.144,5.144,0,0,0-.884.814v8.6H95.083V20.477h1.722V21.73h.045a2.3,2.3,0,0,1,.3-.406,2.927,2.927,0,0,1,.6-.512,4.244,4.244,0,0,1,.886-.43,3.367,3.367,0,0,1,1.163-.186,3.924,3.924,0,0,1,1.349.221,2.416,2.416,0,0,1,1.024.709,3.465,3.465,0,0,1,.651,1.266,6.812,6.812,0,0,1,.233,1.918v7.322ZM89.384,24.961l-1.257-4.392c-.17-.588-.319-1.15-.442-1.686a7.649,7.649,0,0,1-.209-1.336h-.047a6.761,6.761,0,0,1-.221,1.314q-.2.776-.454,1.662l-1.325,4.437ZM93.5,31.632H91.269L89.826,26.5H84.962L83.5,31.632H81.451L86.685,15.6h1.582Z" transform="translate(-4.231 -14.141)" fill-rule="evenodd"/>
          <path id="Fill-3" d="M73.511,29.987c2,3.162,3.568,3.109,5.934,3.109a16.906,16.906,0,0,1-3.869-4.4L71.92,22.854a8.641,8.641,0,0,0-2.69-4.748,4.7,4.7,0,0,0,1.1-.543c-2.387,0-4.753-1.211-6.055-1.211a1.223,1.223,0,0,0-1.375,1.16c.053.736.811,1.484,2.213,1.484a7.476,7.476,0,0,0,1.169-.115,5.558,5.558,0,0,1,1.37,3.375c0,2.558-3.062,4.552-6.152,4.552-.176,0-.342-.008-.516-.019-.28-.635-1.212-1.7-1.212-2.91,0-2.033,1.328-3.693,1.328-5.707a3.773,3.773,0,0,0-.845-2.349,3.57,3.57,0,0,0,.891-1.08,2.191,2.191,0,0,1-.864.107c-1.482,0-2.69-.385-3.867-.385-.673,0-.852.207-.852.4a.443.443,0,0,0,.029.182,3.986,3.986,0,0,0-.764-.213,5.989,5.989,0,0,0-1.12-.1c-1.431,0-1.939.6-1.939,1.113a4.357,4.357,0,0,0,.731,1.832,4.336,4.336,0,0,1,1.533-.471c.76,0,1.435.723,1.793,1.578a6.758,6.758,0,0,1-1.124.084,8.591,8.591,0,0,1-2.538-.5c-.018,0-.055.01-.055.041,0,.2.395.711,1.173.994a15.381,15.381,0,0,0,2.819.574,1.226,1.226,0,0,1-.551.623.315.315,0,0,1-.182.006,12.823,12.823,0,0,1-2.729-.816c-.041-.016-.067.01-.067.053,0,.537,1.392,1.723,2.639,2.178a13.936,13.936,0,0,0-2.956,4.76c-.174.012-.342.019-.516.019-3.091,0-6.152-1.994-6.152-4.552a5.558,5.558,0,0,1,1.37-3.375A7.45,7.45,0,0,0,48.124,19c1.4,0,2.16-.748,2.215-1.484a1.224,1.224,0,0,0-1.376-1.16c-1.3,0-3.666,1.211-6.057,1.211a4.775,4.775,0,0,0,1.1.543,8.651,8.651,0,0,0-2.688,4.748L37.659,28.7a16.884,16.884,0,0,1-3.871,4.4c2.366,0,3.933.053,5.935-3.109l1.875-3a8.085,8.085,0,0,0,.51,1.139L38.38,34.088a16.84,16.84,0,0,1-3.871,4.4c2.366,0,3.933.055,5.935-3.105l3.208-5.133c.24.256.493.506.759.744l-4.528,7.242a16.722,16.722,0,0,1-3.869,4.394c2.366,0,3.933.057,5.933-3.105l4.414-7.06c.291.184.588.361.9.529l-5.39,8.615A16.817,16.817,0,0,1,38,46c2.366,0,3.933.055,5.935-3.105l5.548-8.873c.328.125.661.246,1,.354L44.214,44.4A16.9,16.9,0,0,1,40.347,48.8c2.364,0,3.933.055,5.934-3.105l6.682-10.683c.068.012.135.022.2.035a5.541,5.541,0,0,1,.309,1.654c0,3.357-2.205,6.322-4.852,8.611a2.115,2.115,0,0,0,.737.1,6.9,6.9,0,0,0,1.148-.072,27.27,27.27,0,0,1-2.6,4.121,19.328,19.328,0,0,0-2.952-.277c-.864,0-.962.5-.962.955a2.267,2.267,0,0,0,.794,1.754c.16-.4.483-.935,2.078-.935.031,0,.086,0,.16.01-.465.517-1.926,1.7-1.926,2.646a1.742,1.742,0,0,0,1.6,1.572,1.99,1.99,0,0,1-.047-.529,4.094,4.094,0,0,1,1.259-2.3,2.718,2.718,0,0,0-.008.387c0,1.818.164,2.654,1.32,2.654a1.843,1.843,0,0,0,1.093-.4,2.474,2.474,0,0,1-.79-2.252c0-.266,0-.525.008-.883a4.957,4.957,0,0,0-.039-.766,5.33,5.33,0,0,1,.9-.057s1.64-.131,2.037.723c.446-.408,1.093-.984,1.093-1.619,0-.42-.2-.894-1.046-.894-.321,0-1.327.2-2.17.2a21.222,21.222,0,0,1,2.107-3.043,2.443,2.443,0,0,0,.8,1.228,8.675,8.675,0,0,1,1.543-4.133,20.25,20.25,0,0,1,.293,3.6c0,4.519-1.087,7.857-3.4,8.494a1.98,1.98,0,0,0,1.6.992c.845,0,1.3-.955,1.773-1.855.244.664.919,2.293,1.6,2.293s1.353-1.629,1.6-2.293c.467.9.929,1.855,1.773,1.855a1.98,1.98,0,0,0,1.6-.992c-2.309-.637-3.4-3.974-3.4-8.494a20.265,20.265,0,0,1,.293-3.6,8.611,8.611,0,0,1,1.543,4.133,2.42,2.42,0,0,0,.8-1.228,21.372,21.372,0,0,1,2.107,3.043c-.842,0-1.851-.2-2.17-.2-.845,0-1.044.475-1.044.894,0,.635.647,1.211,1.093,1.619.393-.853,2.037-.723,2.037-.723a5.352,5.352,0,0,1,.9.057,4.725,4.725,0,0,0-.039.766c0,.357,0,.617.006.883a2.474,2.474,0,0,1-.79,2.252,1.843,1.843,0,0,0,1.093.4c1.155,0,1.322-.836,1.322-2.654a3.045,3.045,0,0,0-.01-.387,4.1,4.1,0,0,1,1.259,2.3,1.85,1.85,0,0,1-.049.529,1.744,1.744,0,0,0,1.6-1.572c0-.949-1.46-2.129-1.93-2.646.076-.006.131-.01.16-.01,1.6,0,1.92.535,2.08.935a2.268,2.268,0,0,0,.794-1.754c0-.451-.1-.955-.962-.955a19.351,19.351,0,0,0-2.952.277,27.257,27.257,0,0,1-2.6-4.121,6.911,6.911,0,0,0,1.148.072,2.107,2.107,0,0,0,.737-.1c-2.647-2.289-4.852-5.254-4.852-8.611a5.537,5.537,0,0,1,.309-1.654c.064-.014.135-.023.2-.035l6.682,10.683c2,3.16,3.57,3.105,5.933,3.105A16.9,16.9,0,0,1,69.021,44.4L62.749,34.377c.34-.107.675-.229,1-.354L69.3,42.9c2,3.16,3.57,3.105,5.935,3.105a16.815,16.815,0,0,1-3.869-4.394l-5.388-8.615c.305-.168.6-.346.893-.529l4.416,7.06c2,3.162,3.568,3.105,5.934,3.105a16.757,16.757,0,0,1-3.869-4.394l-4.528-7.242c.266-.238.52-.488.757-.744l3.212,5.133c2,3.16,3.568,3.105,5.933,3.105a16.839,16.839,0,0,1-3.871-4.4l-3.726-5.959a8.553,8.553,0,0,0,.51-1.139ZM43.588,23.126a6.53,6.53,0,0,1,2.192-4.482q.205.05.411.094a5.826,5.826,0,0,0-1.677,3.619c0,3.258,3.484,6.086,7.429,6.086-.025.279-.039.572-.039.875a12.14,12.14,0,0,0,.074,1.349c-4.461-.027-8.389-3.644-8.389-7.541Zm6.045,26.706-.025.076h.078a13.642,13.642,0,0,0,2.266-.15,4.441,4.441,0,0,1,.528-.049c.323,0,.571.031.571.428a1.618,1.618,0,0,1-.616.937,2.807,2.807,0,0,0-2.039-.52,10.652,10.652,0,0,0-1.322.121l-.049.006-.055.008.018.146a6.7,6.7,0,0,1,.082,1.018l-.006.394-.006.49a3.166,3.166,0,0,0,.52,2.127,1.229,1.229,0,0,1-.354.064c-.661,0-.853-.289-.853-2.189,0-.383-.019-.74-.033-.979l-.019-.354-.082.064a5.206,5.206,0,0,0-2.055,3.082,1.373,1.373,0,0,1-.616-.945c0-.545.821-1.363,1.771-2.312l.545-.545.07-.07-.18-.043a3.834,3.834,0,0,0-.907-.15,2.754,2.754,0,0,0-2.143.648,2.222,2.222,0,0,1-.272-1,.555.555,0,0,1,.113-.4.507.507,0,0,1,.364-.09h.027a21.883,21.883,0,0,1,3.124.3l.033.008.019-.027a27.583,27.583,0,0,0,2.915-4.683,1.171,1.171,0,0,1,.483-.088c.44,0,.563.3.69.752a15.154,15.154,0,0,0-2.588,3.926ZM61.7,45.154a1.193,1.193,0,0,1,.485.088A27.618,27.618,0,0,0,65.1,49.925l.02.027.033-.008a21.918,21.918,0,0,1,3.124-.3h.027a.507.507,0,0,1,.364.09.555.555,0,0,1,.113.4,2.222,2.222,0,0,1-.272,1,2.753,2.753,0,0,0-2.145-.648,3.834,3.834,0,0,0-.905.15l-.084.017-.1.025.616.615c.95.949,1.771,1.768,1.771,2.312a1.377,1.377,0,0,1-.614.945A5.219,5.219,0,0,0,65,51.472l-.084-.063-.016.352c-.014.238-.035.6-.035.979,0,1.9-.194,2.189-.852,2.189a1.2,1.2,0,0,1-.352-.064,3.179,3.179,0,0,0,.518-2.127l-.006-.49-.006-.394a6.982,6.982,0,0,1,.08-1.018l.019-.146-.1-.014a10.687,10.687,0,0,0-1.32-.121,2.8,2.8,0,0,0-2.039.52,1.612,1.612,0,0,1-.618-.937c0-.4.246-.428.571-.428a4.438,4.438,0,0,1,.528.049,13.622,13.622,0,0,0,2.266.15h.078l-.025-.076a15.188,15.188,0,0,0-2.587-3.926c.125-.455.248-.752.688-.752ZM56.523,19.179a4.076,4.076,0,0,0-.813-1.619,2.256,2.256,0,0,0-1.679-.889,4.117,4.117,0,0,0-1.31.322,3.577,3.577,0,0,1-.411-1.141c0-.283.479-.57,1.4-.57,2.018,0,3.222.91,3.222,2.437a3.638,3.638,0,0,1-.4,1.459Zm.905-1.986a2.653,2.653,0,0,0-.487-1.158c.014-.394.176-.771.811-.461-.344.352-.078.975-.078.975s.7-.326.557-.791c1.044.25.293,1.65-.8,1.435Zm3.926,13.474a11.289,11.289,0,0,0,.084-1.349c0-.252,0-.545-.029-.877,3.9-.055,7.314-2.859,7.314-6.084a5.836,5.836,0,0,0-1.675-3.619q.2-.044.411-.094a6.53,6.53,0,0,1,2.19,4.482c0,3.869-3.871,7.46-8.293,7.541Z" transform="translate(-33.788 -14.466)" fill-rule="evenodd"/>
          <path id="Fill-5" d="M69.3,54.679H76.14V15.618H69.3Z" transform="translate(-11.768 -13.752)" fill-rule="evenodd"/>
          <path id="Fill-7" d="M69.3,78.788H76.14V39.728H69.3Z" transform="translate(-11.768 1.199)" fill="red" fill-rule="evenodd"/>
          <path id="Fill-8" d="M69.3,102.9H76.14V63.837H69.3Z" transform="translate(-11.768 16.15)" fill="#fc0" fill-rule="evenodd"/>
        </g>
      </g>
    </g>
  </g>
</svg>
