<svg xmlns="http://www.w3.org/2000/svg" xmlns:xlink="http://www.w3.org/1999/xlink" width="208.949" height="254.386" viewBox="0 0 208.949 254.386">
  <defs>
    <clipPath id="clip-path">
      <rect id="Rechteck_13621" data-name="Rechteck 13621" width="208.949" height="208.291" fill="#746180"/>
    </clipPath>
  </defs>
  <g id="Gruppe_25254" data-name="Gruppe 25254" transform="translate(-5653.629 16255.085)">
    <g id="Gruppe_25253" data-name="Gruppe 25253">
      <g id="Gruppe_25252" data-name="Gruppe 25252">
        <path id="Differenzmenge_670" data-name="Differenzmenge 670" d="M120.034,200.057H83.774l-3.126-15.629L58.767,172.549l-15.63,11.879L18.755,160.045l11.879-15.629L18.755,119.408,0,115.033V83.149l18.755-4.378L30.634,55.017,18.755,40.01l20.631-22.5,19.381,10,21.881-10L83.774,0h32.51l3.75,17.506,21.882,10,16.254-10,26.883,22.5L173.174,55.017l11.878,23.755h14.379v36.261l-14.379,4.376-11.878,25.007,11.878,15.629L161.3,184.428l-15-11.879-22.507,11.879-3.751,15.629ZM100.606,41.586a58.5,58.5,0,1,0,58.5,58.5A58.566,58.566,0,0,0,100.606,41.586Z" transform="translate(5657.393 -16205.086)" fill="#f8b8e4"/>
        <circle id="Ellipse_2401" data-name="Ellipse 2401" cx="9.5" cy="9.5" r="9.5" transform="translate(5749 -16113)" fill="#ef765e"/>
        <g id="Gruppe_25251" data-name="Gruppe 25251" transform="translate(5653.629 -16208.99)">
          <g id="Gruppe_25250" data-name="Gruppe 25250" clip-path="url(#clip-path)">
            <path id="Pfad_47688" data-name="Pfad 47688" d="M104.441,0q13.593,0,15.775.117c8.247.445,5.918,14.591,6.287,18.84a1.758,1.758,0,0,0,1.223,1.494,66.759,66.759,0,0,1,18.026,8.014,1.575,1.575,0,0,0,1.882-.1q2.823-2.33,9.255-8.382c6.073-5.7,10.516-3.3,15.931,2.444q2.358,2.475,14.571,14.436c8.654,8.441-2.173,15.425-7.741,21.867a1.518,1.518,0,0,0-.137,1.8,71.455,71.455,0,0,1,8.519,18.626,1.782,1.782,0,0,0,1.455,1.242c5.22.679,19.306-.835,19.345,8.11q.029,11.321.059,17.172c.057,11.371,1.358,18.743-11.623,18.51a59.464,59.464,0,0,0-7.508.214,1.568,1.568,0,0,0-1.358,1.2,66.985,66.985,0,0,1-8.5,20.606,1.606,1.606,0,0,0,.117,1.9q3.114,3.754,8.324,9.76,5.209,5.965-.233,11.563-10.942,11.176-19.616,19.249c-6.267,5.821-16.105-5.162-20.47-9.411a.852.852,0,0,0-1.068-.117,73.52,73.52,0,0,1-19.441,8.674,1.478,1.478,0,0,0-1.068,1.4c-.057,8.925,2.116,17.579-7.741,18.976q-.406.057-14.2.077-13.767,0-14.2-.059c-9.838-1.4-7.684-10.05-7.741-18.975a1.478,1.478,0,0,0-1.068-1.4,73.52,73.52,0,0,1-19.441-8.674.875.875,0,0,0-1.068.117c-4.366,4.269-14.2,15.251-20.47,9.429q-8.673-8.061-19.635-19.228-5.444-5.588-.233-11.565,5.209-5.995,8.324-9.76a1.635,1.635,0,0,0,.117-1.9,67,67,0,0,1-8.519-20.606,1.545,1.545,0,0,0-1.358-1.2,59.238,59.238,0,0,0-7.508-.214C-1.286,124.51.015,117.135.054,105.766c.018-3.9.018-9.624.057-17.172.02-8.945,14.106-7.451,19.325-8.13a1.758,1.758,0,0,0,1.456-1.242A71.442,71.442,0,0,1,29.41,60.6a1.545,1.545,0,0,0-.135-1.8c-5.589-6.442-16.415-13.427-7.762-21.867Q33.738,24.963,36.065,22.469c5.413-5.744,9.856-8.149,15.93-2.445q6.461,6.055,9.275,8.363a1.573,1.573,0,0,0,1.882.1A66.92,66.92,0,0,1,81.158,20.47a1.724,1.724,0,0,0,1.222-1.494C82.748,14.726,80.42.582,88.667.135Q90.821-.009,104.441,0m80.406,162.675L173.5,150.024a3.3,3.3,0,0,1-.271-4.094,66.367,66.367,0,0,0,10.3-23.905,3.7,3.7,0,0,1,3.357-2.93l14.2-1.008a2.26,2.26,0,0,0,2.1-2.232V89.41a2.609,2.609,0,0,0-2.62-2.62H189.194a5.957,5.957,0,0,1-5.666-4.133,88.785,88.785,0,0,0-10.477-22.1,2.89,2.89,0,0,1,.251-3.531l11.449-12.9a.865.865,0,0,0-.039-1.164L164.63,22.876a1.747,1.747,0,0,0-2.406-.059L150.175,33.644a4.355,4.355,0,0,1-5.2.486A79.291,79.291,0,0,0,123.9,25.088a3.54,3.54,0,0,1-2.619-3.181l-.99-13.912a2.581,2.581,0,0,0-2.561-2.387H90.975A2.733,2.733,0,0,0,88.24,8.343V22.41a3.5,3.5,0,0,1-2.658,3.376,67.379,67.379,0,0,0-22,9.7,2.86,2.86,0,0,1-3.512-.214L45.845,22.643a1.678,1.678,0,0,0-2.289.059L24.268,41.988a1.771,1.771,0,0,0-.057,2.425L35.987,57.549a2.717,2.717,0,0,1,.272,3.279,85.909,85.909,0,0,0-10.187,22,5.641,5.641,0,0,1-5.413,4.017H9.387a3.328,3.328,0,0,0-3.318,3.318v25.767a2.368,2.368,0,0,0,2.25,2.367l13.951.737a3.884,3.884,0,0,1,3.608,3.085A66.674,66.674,0,0,0,36.007,146.24a2.07,2.07,0,0,1-.135,2.5L24.054,162.908a1.274,1.274,0,0,0,.078,1.688l20.315,20.315a1.074,1.074,0,0,0,1.455.039L58.96,173.211a3.152,3.152,0,0,1,3.8-.31,82.091,82.091,0,0,0,22.682,10.225,4.218,4.218,0,0,1,3.143,4.094v13.64a1.606,1.606,0,0,0,1.61,1.611H118.14a2.725,2.725,0,0,0,2.716-2.716V186.967a4.115,4.115,0,0,1,2.988-3.957,78.98,78.98,0,0,0,22.818-10.478,2.076,2.076,0,0,1,2.561.174l13.29,11.778a1.62,1.62,0,0,0,2.212-.059l20.063-20.082a1.206,1.206,0,0,0,.059-1.668" transform="translate(0)" fill="#746180"/>
            <path id="Pfad_47689" data-name="Pfad 47689" d="M162.636,98.779A63.254,63.254,0,1,1,99.382,35.525a63.265,63.265,0,0,1,63.254,63.254m-6.228-.059a57.025,57.025,0,1,0-57.026,57.026,57.03,57.03,0,0,0,57.026-57.026" transform="translate(5.35 5.26)" fill="#746180"/>
            <path id="Pfad_47690" data-name="Pfad 47690" d="M94.617,54.73a2.777,2.777,0,0,1-2.7,2.846l-.387.01a2.78,2.78,0,0,1-2.847-2.7L88.548,49.8a2.775,2.775,0,0,1,2.7-2.846l.389-.01a2.779,2.779,0,0,1,2.845,2.7Z" transform="translate(13.111 6.951)" fill="#746180"/>
            <path id="Pfad_47691" data-name="Pfad 47691" d="M91.28,109.047a7.359,7.359,0,0,1-.29,2.619,1.613,1.613,0,0,1-1.223,1.2c-2.969.641-4.792-1.145-4.035-4.21a4.041,4.041,0,0,0-1.766-4.366,1.691,1.691,0,0,0-1.96-.078q-2.5,1.631-4.308,1.164a2.714,2.714,0,0,1-.718-5.006l2.405-1.358a1.448,1.448,0,0,0,.66-1.746,7.32,7.32,0,0,1,.194-5.762,1.7,1.7,0,0,0-.737-2.193c-2.465-1.3-3.882-2.328-4.231-3.047a2.861,2.861,0,0,1,3.686-3.861,25.336,25.336,0,0,1,3.59,2.348,1.456,1.456,0,0,0,1.785,0,16.286,16.286,0,0,1,5.723-2.987,1.244,1.244,0,0,0,.893-1.456c-.447-2.154-.349-3.745.31-4.735a2.854,2.854,0,0,1,5.2,2.077c-.719,3.55,1.086,5.529,5.374,5.9a1.831,1.831,0,0,0,1.475-.543l21.11-21.033a3.135,3.135,0,0,1,4.231-.194l.057.059a2.8,2.8,0,0,1,.156,4.133L106.182,88.44A1.675,1.675,0,0,0,105.7,89.9a3.812,3.812,0,0,0,3.474,3.4,2.862,2.862,0,0,1,2.366,2.6,2.29,2.29,0,0,1-2.056,2.464c-2.328.253-4.192,2.018-5.607,5.278a1.251,1.251,0,0,0,.5,1.572c1.494.913,2.25,1.728,2.309,2.445a3,3,0,0,1-4.482,2.871c-.99-.6-2-1.28-3.065-2.037a2.537,2.537,0,0,0-2-.447,11.434,11.434,0,0,1-4.986.194.69.69,0,0,0-.874.815m9.993-14.106a7.82,7.82,0,1,0-7.82,7.82,7.809,7.809,0,0,0,7.82-7.82" transform="translate(11.104 9.04)" fill="#746180"/>
            <path id="Pfad_47692" data-name="Pfad 47692" d="M66.892,66.831a2.591,2.591,0,0,1-.077,3.676l-.448.429a2.6,2.6,0,0,1-3.676-.077l-3.3-3.445a2.591,2.591,0,0,1,.077-3.676l.448-.429a2.6,2.6,0,0,1,3.676.077Z" transform="translate(8.686 9.267)" fill="#746180"/>
            <path id="Pfad_47693" data-name="Pfad 47693" d="M57.333,90.659c.02,1.685-2.309,3.083-5.2,3.1s-5.221-1.339-5.241-3.029,2.309-3.084,5.2-3.1,5.221,1.339,5.241,3.03" transform="translate(6.944 12.975)" fill="#746180"/>
            <path id="Pfad_47694" data-name="Pfad 47694" d="M136.267,90.657a2.638,2.638,0,0,1-2.568,2.707l-4.81.126a2.639,2.639,0,0,1-2.707-2.569l-.008-.31a2.637,2.637,0,0,1,2.568-2.707l4.81-.126a2.641,2.641,0,0,1,2.707,2.569Z" transform="translate(18.683 12.997)" fill="#746180"/>
            <path id="Pfad_47695" data-name="Pfad 47695" d="M65.328,122.5a2.446,2.446,0,0,1-3.441.338l-.75-.617a2.435,2.435,0,0,1-.338-3.441l3.251-3.959a2.445,2.445,0,0,1,3.441-.336l.75.615a2.436,2.436,0,0,1,.338,3.441Z" transform="translate(8.92 16.87)" fill="#746180"/>
            <path id="Pfad_47696" data-name="Pfad 47696" d="M92.119,124.489c1.8,0,3.258,2.483,3.258,5.55s-1.453,5.549-3.258,5.549-3.261-2.483-3.261-5.549,1.455-5.55,3.261-5.55" transform="translate(13.157 18.433)" fill="#746180"/>
          </g>
        </g>
      </g>
    </g>
    <rect id="Rechteck_13622" data-name="Rechteck 13622" width="10" height="23" transform="matrix(0.985, -0.174, 0.174, 0.985, 5732.079, -16250.957)" fill="#ef765e"/>
    <rect id="Rechteck_13623" data-name="Rechteck 13623" width="10" height="23" transform="matrix(-0.985, -0.174, 0.174, -0.985, 5779.927, -16228.307)" fill="#ef765e"/>
    <rect id="Rechteck_13624" data-name="Rechteck 13624" width="10" height="23" transform="translate(5763.304 -16232.089) rotate(179)" fill="#ef765e"/>
  </g>
</svg>
