<svg xmlns="http://www.w3.org/2000/svg" xmlns:xlink="http://www.w3.org/1999/xlink" width="251.145" height="225.694" viewBox="0 0 251.145 225.694">
  <defs>
    <clipPath id="clip-path">
      <rect id="Rechteck_13617" data-name="Rechteck 13617" width="251.144" height="225.694" fill="none"/>
    </clipPath>
  </defs>
  <g id="Gruppe_25240" data-name="Gruppe 25240" transform="translate(-4461 16042.001)">
    <path id="Pfad_47678" data-name="Pfad 47678" d="M4477.594-15895.058l-13.954-7.311v-122.91l13.954-14.617h158.125l17.273,14.617v118.263l-10.63,11.958h-74.411l-60.459,59.795v-54.481Z" transform="translate(5.373 4.286)" fill="#fff"/>
    <g id="Gruppe_25239" data-name="Gruppe 25239" transform="translate(4461 -16042.001)">
      <g id="Gruppe_25238" data-name="Gruppe 25238" transform="translate(0 0)" clip-path="url(#clip-path)">
        <path id="Pfad_47677" data-name="Pfad 47677" d="M.021,29.232C-.589,13.843,13.13-.786,28.762.033c49.626,0,99.283-.091,148.939.061,16.937,0,29.078,17.119,26.862,33.266,11.9.577,25.769-2.428,35.391,6.5C249.059,46.5,251.4,58.4,251.123,69.024c-.273,28.379.243,56.789-.243,85.169.121,13.052-9.257,25.071-21.793,28.41-9.409,1.366-18.94.577-28.41.577-.182,14.175.273,28.349-.455,42.493-6.981.425-10.9-5.8-15.662-9.622-12.262-10.745-24.191-21.914-36.271-32.872q-31.142.273-62.222.03c-11.595,10.35-21.914,22.005-33.2,32.629l-6.8.971c-.364-19.456-.212-38.942-.091-58.4-9.622-.364-19.911,1.73-28.926-2.61C6.908,151.309-.225,140.473.052,129.334c-.094-33.357-.03-66.745-.03-100.1M17.2,11.688a19.408,19.408,0,0,0-8.59,17.726c-.121,31.384.118,62.769-.121,94.123.027,7.133-.212,15.48,5.916,20.488,10.171,10.623,26.164,3.217,38.7,6.89,2.944,16.937.091,34.632,1.487,51.842,17.7-17.574,35.118-35.452,52.965-52.874,23.28,0,46.591.243,69.871-.091,11.959.334,20.306-12.111,19.334-23.25-.061-32.477.152-64.954-.121-97.431C197,18.123,187.778,10.2,178,7.348c-44.679.3-89.327.121-133.972.091-9.018.152-19-1.244-26.831,4.249M204.441,43.831c-.425,28.622.061,57.245-.152,85.9,1.032,14.782-12.171,28.349-26.8,28.592-22.339.455-44.709.091-67.048.121-5.19,5.554-12.353,9.895-14.751,17.483q28.774-.228,57.518.03c12.839,11.9,25.4,24.13,38.73,35.512.334-11.655.152-23.311.121-34.936a234.44,234.44,0,0,1,31.991-.486c9.622-3.187,19.426-11.018,18.485-22.218q0-45.574-.03-91.118c.273-11.777-10.623-21.914-22.218-21.854-5.251.637-12.535-2.489-15.844,2.975" transform="translate(0 0.001)" fill="#746180"/>
      </g>
    </g>
    <circle id="Ellipse_2398" data-name="Ellipse 2398" cx="4.49" cy="4.49" r="4.49" transform="translate(4561.555 -15931.534)" fill="#f8b8e4"/>
    <rect id="Rechteck_13618" data-name="Rechteck 13618" width="5" height="61" transform="translate(4563 -16002.665)" fill="#f8b8e4"/>
  </g>
</svg>
