<svg xmlns="http://www.w3.org/2000/svg" xmlns:xlink="http://www.w3.org/1999/xlink" width="244.168" height="244.168" viewBox="0 0 244.168 244.168">
  <defs>
    <clipPath id="clip-path">
      <rect id="Rechteck_13625" data-name="Rechteck 13625" width="244.168" height="244.168" fill="none" stroke="#746180" stroke-width="1"/>
    </clipPath>
  </defs>
  <g id="Gruppe_25258" data-name="Gruppe 25258" transform="translate(-5268.5 20122)">
    <path id="Pfad_47707" data-name="Pfad 47707" d="M5484.163-19936.1l28.132-25.633-17.5-16.879v-23.133l-12.235-21.594-9.646,34.1,8.127,43.137Z" fill="#967ea6"/>
    <g id="Gruppe_25257" data-name="Gruppe 25257" transform="translate(5268.5 -20122)">
      <g id="Gruppe_25256" data-name="Gruppe 25256" clip-path="url(#clip-path)">
        <path id="Pfad_47708" data-name="Pfad 47708" d="M27.79,59.375.045,82.682,17.8,102.287v33.662l20.346,4.07L43.7,97.107Z" fill="#f4a393"/>
        <path id="Pfad_47698" data-name="Pfad 47698" d="M130.335,37.581l-22.046-1.6a7.689,7.689,0,0,0-1.113,15.337l13.97,1.013a10.986,10.986,0,0,1,5.943,2.311,21.388,21.388,0,0,0,26.8-.466l11.964-9.933,16.972-14.676" fill="none" stroke="#746180" stroke-linecap="round" stroke-linejoin="round" stroke-width="7"/>
        <path id="Pfad_47699" data-name="Pfad 47699" d="M159.514,3.5,143.845,17.05a2.834,2.834,0,0,1-2.057.683l-4.352-.316-26.858-1.948a18.779,18.779,0,0,0-13.64,4.525L63.478,48.93a6.156,6.156,0,0,0-.63,8.685,11.819,11.819,0,0,0,16.7,1.188l21.132-18.214" fill="none" stroke="#746180" stroke-linecap="round" stroke-linejoin="round" stroke-width="7"/>
        <path id="Pfad_47701" data-name="Pfad 47701" d="M143.49,203.579l21.132-18.214a11.819,11.819,0,0,1,16.7,1.188,6.156,6.156,0,0,1-.63,8.685l-33.46,28.936a18.779,18.779,0,0,1-13.64,4.525l-26.858-1.948-4.352-.316a2.83,2.83,0,0,0-2.057.683l-15.669,13.55-22.7-26.344,44.778-19.086,17.039,13.6" fill="#7d6d86" stroke="#746180" stroke-linecap="round" stroke-linejoin="round" stroke-width="7"/>
        <path id="Pfad_47703" data-name="Pfad 47703" d="M3.5,84.654l13.55,15.669a2.83,2.83,0,0,1,.683,2.057l-.316,4.352L15.469,133.59a18.779,18.779,0,0,0,4.525,13.64L48.93,180.69a6.156,6.156,0,0,0,8.685.63,11.819,11.819,0,0,0,1.188-16.7L36.3,137.8" fill="#f4a393" stroke="#746180" stroke-linecap="round" stroke-linejoin="round" stroke-width="7"/>
        <path id="Pfad_47705" data-name="Pfad 47705" d="M240.668,159.514l-13.55-15.669a2.834,2.834,0,0,1-.683-2.057l.316-4.352,1.948-26.858a18.779,18.779,0,0,0-4.525-13.64L195.238,63.477a6.157,6.157,0,0,0-8.685-.629,11.819,11.819,0,0,0-1.188,16.7L208,106.525" fill="#967ea6" stroke="#746180" stroke-linecap="round" stroke-linejoin="round" stroke-width="7"/>
        <path id="Pfad_47706" data-name="Pfad 47706" d="M166.628,98.165c-3.357-9.514-10.546-14.85-20.53-15.81C130.776,80.882,122.084,96.3,122.084,96.3S113.392,80.882,98.07,82.355c-9.984.96-17.173,6.3-20.53,15.81-3.442,9.754-.9,21.373,4.794,29.992,10.044,15.2,37.645,32.453,39.75,33.755,2.105-1.3,29.707-18.558,39.75-33.755C167.53,119.538,170.07,107.919,166.628,98.165Z" fill="#ea4929" stroke="#746180" stroke-linecap="round" stroke-linejoin="round" stroke-width="7"/>
        <path id="Pfad_47702" data-name="Pfad 47702" d="M37.581,113.833l-2.023,23.159c-.307,4.235,3.3,6.8,7.537,7.112a7.688,7.688,0,0,0,8.224-7.112l1.013-13.97a10.986,10.986,0,0,1,2.311-5.943,21.387,21.387,0,0,0-.466-26.8L44.245,78.319,29.568,61.347" fill="#f4a393" stroke="#746180" stroke-linecap="round" stroke-linejoin="round" stroke-width="7"/>
        <path id="Pfad_47704" data-name="Pfad 47704" d="M206.587,130.335l1.6-22.046a7.689,7.689,0,0,0-15.337-1.113l-1.013,13.97a10.986,10.986,0,0,1-2.311,5.943,21.388,21.388,0,0,0,.466,26.8l9.933,11.964L214.6,182.821" fill="#967ea6" stroke="#746180" stroke-linecap="round" stroke-linejoin="round" stroke-width="7"/>
        <path id="Pfad_47700" data-name="Pfad 47700" d="M117.079,208.186h18.8a7.689,7.689,0,0,0,1.113-15.337l-13.97-1.013a10.986,10.986,0,0,1-5.943-2.311,21.387,21.387,0,0,0-26.8.466l-11.964,9.932L61.347,214.6" fill="#7d6d86" stroke="#746180" stroke-linecap="round" stroke-linejoin="round" stroke-width="7"/>
      </g>
    </g>
  </g>
</svg>
