<svg xmlns="http://www.w3.org/2000/svg" xmlns:xlink="http://www.w3.org/1999/xlink" width="233.881" height="219.502" viewBox="0 0 233.881 219.502">
  <defs>
    <clipPath id="clip-path">
      <rect id="Rechteck_13620" data-name="Rechteck 13620" width="233.881" height="219.502" fill="none" stroke="#746180" stroke-width="1"/>
    </clipPath>
  </defs>
  <g id="Gruppe_25249" data-name="Gruppe 25249" transform="translate(-5300 16208.99)">
    <path id="Pfad_47687" data-name="Pfad 47687" d="M5390.581-16195.073h46.433l6.877-11.252,68.144,33.134-13.754,21.881,31.884,31.885-39.386,31.259-7.5,6.878-10.628-11.88-22.506-6.252-21.881-25.631-28.133-3.752H5392" fill="#d4eace"/>
    <g id="Gruppe_25248" data-name="Gruppe 25248" transform="translate(5300 -16208.99)">
      <g id="Gruppe_25247" data-name="Gruppe 25247" clip-path="url(#clip-path)">
        <path id="Pfad_47686" data-name="Pfad 47686" d="M23.368,91.822s39.03,13.841,68.083-6.7a21.32,21.32,0,0,1,12.324-3.8h12.41a21.926,21.926,0,0,1,15.14,6.067l14.463,13.806a9.6,9.6,0,0,1,.873,12.935l-33.735,42.236c-15.1-12.977-8.4-29.047,4.632-46.014-17,26.629-36.042,38.547-57.44,33.352m76.4-16.894A11.646,11.646,0,0,0,143,132.277l12.725,3.8,12.265,3.653a11.523,11.523,0,0,0,3.362.484,11.788,11.788,0,0,0,3.387-23.079l-24.53-7.329a10.813,10.813,0,0,0-1.547-.339m20.972,30.771-13.909-4.161L143,132.277l-1.185-.363a13.173,13.173,0,0,0-3.821-.556,13.393,13.393,0,0,0-3.847,26.223l21.263,6.362,6.58,1.959a13.173,13.173,0,0,0,3.823.557,13.388,13.388,0,0,0,3.821-26.223Zm-14.224,23.707-21.263-6.362-7.016-2.081a13.729,13.729,0,0,0-3.918-.58,13.628,13.628,0,0,0-3.871,26.682l28.3,8.419a13.6,13.6,0,1,0,7.765-26.078Zm-10.16,25.4L119.345,181.6l-2.371-.7a13.62,13.62,0,1,0-7.789,26.1l28.279,8.418a13.608,13.608,0,1,0,7.789-26.078Zm-37,17.333C78.83,191.3,42.694,180.052,3.5,170.675M126.617,15.235H92.647V66.911m79.47,36.441,38.294-68.558L143.087,3.5,123.735,64.44m44.99,19.147,24.528-41.418-43.122-18.9-12.4,36.816m51.677,61.8,40.97-31.5L208.764,65.47" fill="none" stroke="#746180" stroke-linecap="round" stroke-linejoin="round" stroke-width="7"/>
      </g>
    </g>
  </g>
</svg>
