<svg xmlns="http://www.w3.org/2000/svg" xmlns:xlink="http://www.w3.org/1999/xlink" width="162.526" height="204.476" viewBox="0 0 162.526 204.476">
  <defs>
    <clipPath id="clip-path">
      <rect id="Rechteck_13619" data-name="Rechteck 13619" width="162.526" height="203.848" fill="#746180"/>
    </clipPath>
  </defs>
  <g id="Gruppe_25243" data-name="Gruppe 25243" transform="translate(-4831.893 16193.336)">
    <path id="Pfad_47681" data-name="Pfad 47681" d="M4913.156-15989.488l-32.08-24.445-23.131-28.133-19.38-54.39-3.751-68.146,38.761-6.876,39.582-19.381,39.191,19.381,37.511,6.876v55.642l-12.5,53.765-31.884,41.262Z" fill="#aad59e" stroke="#707070" stroke-width="1"/>
    <g id="Gruppe_25242" data-name="Gruppe 25242" transform="translate(4831.893 -16193.336)">
      <g id="Gruppe_25241" data-name="Gruppe 25241" clip-path="url(#clip-path)">
        <path id="Pfad_47679" data-name="Pfad 47679" d="M81.175,0a1.509,1.509,0,0,1,.763.119A165.567,165.567,0,0,0,159.8,26.062a2.319,2.319,0,0,1,2.153,2.187,341.241,341.241,0,0,1-1.848,60.5q-9.435,77.5-76.743,114.607a3.563,3.563,0,0,1-3.612,0Q12.324,166.527,2.566,89.055A342.684,342.684,0,0,1,.5,28.554a2.319,2.319,0,0,1,2.136-2.187A165.71,165.71,0,0,0,80.394.119,1.634,1.634,0,0,1,81.175,0m.05,6.325a.782.782,0,0,0-.339.034C58.471,19.839,32.51,29.352,6.346,30.775a.667.667,0,0,0-.627.644c-1.713,30.318.51,66.3,11.09,93.786q18.034,46.976,63.908,72.59a1.872,1.872,0,0,0,.78.1,1.835,1.835,0,0,0,.764-.1q45.807-25.74,63.72-72.76c10.5-27.519,12.616-63.5,10.835-93.818a.692.692,0,0,0-.644-.644c-26.163-1.356-52.14-10.8-74.607-24.214a.782.782,0,0,0-.339-.034" transform="translate(0)" fill="#746180"/>
        <path id="Pfad_47680" data-name="Pfad 47680" d="M68.243,108.382l46.833-48.851a2.924,2.924,0,0,1,3.832-.323l.035.034a2.462,2.462,0,0,1,.288,3.544q-14.675,16.355-48.767,51.242-2.95,3-5.85.254-17.5-16.607-23.738-23.009a2.367,2.367,0,0,1,.356-3.6l.475-.321a2.616,2.616,0,0,1,3.29.288l21.669,20.771a1.12,1.12,0,0,0,1.577-.034" transform="translate(4.827 7.039)" fill="#746180"/>
      </g>
    </g>
  </g>
</svg>
