<svg id="Gruppe_25245" data-name="Gruppe 25245" xmlns="http://www.w3.org/2000/svg" width="198.491" height="230.76" viewBox="0 0 198.491 230.76">
  <g id="Gruppe_25246" data-name="Gruppe 25246">
    <circle id="Ellipse_2399" data-name="Ellipse 2399" cx="45.142" cy="45.142" r="45.142" transform="translate(105.206 137.475)" fill="#fff" stroke="#f8b8e4" stroke-miterlimit="10" stroke-width="6"/>
    <line id="Linie_7" data-name="Linie 7" x1="63.841" y2="63.841" transform="translate(118.428 150.696)" fill="none" stroke="#f8b8e4" stroke-miterlimit="10" stroke-width="6"/>
    <path id="Pfad_47682" data-name="Pfad 47682" d="M71.216,101.44V16.189a13.188,13.188,0,1,1,26.377,0V29.377" fill="none" stroke="#746180" stroke-linecap="round" stroke-linejoin="round" stroke-width="6"/>
    <path id="Pfad_47683" data-name="Pfad 47683" d="M97.594,102.081v-72.7a13.188,13.188,0,1,1,26.377,0v14.16" fill="none" stroke="#746180" stroke-linecap="round" stroke-linejoin="round" stroke-width="6"/>
    <path id="Pfad_47684" data-name="Pfad 47684" d="M71.22,29.375a13.19,13.19,0,0,0-26.38,0v87.83l-17.48-16.97a14.356,14.356,0,0,0-21.39,19.04l44.14,57.55a42.466,42.466,0,0,0,33.69,16.61h3.16" fill="none" stroke="#746180" stroke-linecap="round" stroke-linejoin="round" stroke-width="6"/>
    <path id="Pfad_47685" data-name="Pfad 47685" d="M150.35,118.325V43.935a13.455,13.455,0,0,0-13.14-13.59,13.213,13.213,0,0,0-13.24,13.19V102.4" fill="none" stroke="#746180" stroke-linecap="round" stroke-linejoin="round" stroke-width="6"/>
  </g>
</svg>
