<svg xmlns="http://www.w3.org/2000/svg" width="621" height="617" viewBox="0 0 621 617"><g id="Herkunft" transform="translate(-576 -232)"><g id="Herkunft-2" data-name="Herkunft"><path id="Pfad_46084" data-name="Pfad 46084" d="M0,0H621V617H0Z" transform="translate(576 232)" fill="#746180"/><g id="Gruppe_24482" data-name="Gruppe 24482"><g id="Gruppe_24485" data-name="Gruppe 24485"><g id="earth-world-global-globe-planet" transform="translate(674.691 328.189)"><path id="Pfad_46098" data-name="Pfad 46098" d="M211.811,2C96.121,2,2,96.121,2,211.811S96.121,421.622,211.811,421.622,421.622,327.5,421.622,211.811,327.5,2,211.811,2Zm195.1,193.648-25.205,25.205a6.951,6.951,0,0,0-1.881,3.427l-13.547,60.957L337.7,313.821V246.779a7.077,7.077,0,0,0-.5-2.6l-13.987-34.968a7,7,0,0,0-6.5-4.392H263.1L239.3,186.976l-6.091-42.627L265.7,111.857a6.981,6.981,0,0,0,2.056-4.952V85.924a6.975,6.975,0,0,0-2.049-4.945L255.291,70.559l10.547-21.093,32.752-13.134C358.567,66.111,401.172,125.725,406.914,195.648ZM110.731,44.158,141.874,55.8v33.15L75.329,128.88A7,7,0,0,0,72.07,133.5l-5.2,25.989-19.785-9.9a7,7,0,0,0-9.763,4.042l-6.994,20.981a6.967,6.967,0,0,0,.818,6.092l27.975,41.962a7.011,7.011,0,0,0,3.9,2.846l46.305,13.232,19.561,32.6a7.027,7.027,0,0,0,5.126,3.343l48.117,6.015-4.707,18.834L150.4,333.326a7.022,7.022,0,0,0-1.4,2.993l-6.994,34.968a7,7,0,0,0,.133,3.294l6.441,22.513q-7.763-2.654-15.232-5.924l-26.912-69.979a7,7,0,0,0-3.4-3.749l-26.5-13.253L57.95,279.419v-32.64a7.032,7.032,0,0,0-1.175-3.881l-27.73-41.6L18.554,180.325A196.23,196.23,0,0,1,110.731,44.158ZM15.987,211.811c0-1.706.084-3.385.126-5.084L43.962,248.9v32.849a6.99,6.99,0,0,0,1.4,4.2l20.981,27.975a6.956,6.956,0,0,0,2.469,2.056l25.548,12.777,20.4,53.026C55.809,347.992,15.987,284.489,15.987,211.811ZM211.811,407.634a195.331,195.331,0,0,1-47.333-5.819l-8.42-29.443,6.329-31.633L189.3,307.1a6.991,6.991,0,0,0,1.322-2.672l6.994-27.975a7,7,0,0,0-5.924-8.637l-52.572-6.574L119.886,229.19a7.007,7.007,0,0,0-4.077-3.126L69.321,212.783,44.676,175.8l3.357-10.085L68.8,176.094a6.993,6.993,0,0,0,9.987-4.882l6.392-31.933,67.286-40.368a6.975,6.975,0,0,0,3.4-5.994V50.956a7,7,0,0,0-4.539-6.553l-24.3-9.092a195.569,195.569,0,0,1,153.554-6.826l-22.408,8.987a6.975,6.975,0,0,0-3.651,3.364L240.527,68.811a6.989,6.989,0,0,0,1.315,8.071L253.773,88.82v15.19l-32.919,32.919a6.982,6.982,0,0,0-1.979,5.938l6.994,48.956a6.967,6.967,0,0,0,2.728,4.6l27.975,20.981a6.99,6.99,0,0,0,4.2,1.4h51.215l11.728,29.318V330.7a6.993,6.993,0,0,0,11.938,4.945l41.962-41.962a6.951,6.951,0,0,0,1.881-3.427L393.039,229.3l14.519-14.519C405.956,321.388,318.793,407.634,211.811,407.634Z" fill="#967ea6"/></g><g id="Gruppe_24484" data-name="Gruppe 24484" transform="translate(-448 15.999)"><path id="Differenzmenge_654" data-name="Differenzmenge 654" d="M20626-2555h-46a12.916,12.916,0,0,1-9.193-3.808A12.915,12.915,0,0,1,20567-2568v-135a12.922,12.922,0,0,1,3.807-9.2A12.914,12.914,0,0,1,20580-2716h135a12.91,12.91,0,0,1,9.191,3.809,12.923,12.923,0,0,1,3.809,9.2v135a12.916,12.916,0,0,1-3.809,9.192A12.911,12.911,0,0,1,20715-2555h-45v-65a10.012,10.012,0,0,0-10-10h-24a10.014,10.014,0,0,0-10,10v65Z" transform="translate(-19295 3212)" fill="#514658"/><path id="Polygon_20" data-name="Polygon 20" d="M102.616,8.172a9,9,0,0,1,13.767,0L206.535,115.2a9,9,0,0,1-6.883,14.8H19.348a9,9,0,0,1-6.884-14.8Z" transform="translate(1243 405)" fill="#514658"/></g><g id="Gruppe_24481" data-name="Gruppe 24481" transform="translate(-466 8.999)"><path id="Differenzmenge_654-2" data-name="Differenzmenge 654" d="M20626-2555h-46a12.916,12.916,0,0,1-9.193-3.808A12.915,12.915,0,0,1,20567-2568v-135a12.922,12.922,0,0,1,3.807-9.2A12.914,12.914,0,0,1,20580-2716h135a12.91,12.91,0,0,1,9.191,3.809,12.923,12.923,0,0,1,3.809,9.2v135a12.916,12.916,0,0,1-3.809,9.192A12.911,12.911,0,0,1,20715-2555h-45v-65a10.012,10.012,0,0,0-10-10h-24a10.014,10.014,0,0,0-10,10v65Z" transform="translate(-19295 3212)" fill="#bfdfb6"/><path id="Polygon_20-2" data-name="Polygon 20" d="M102.616,8.172a9,9,0,0,1,13.767,0L206.535,115.2a9,9,0,0,1-6.883,14.8H19.348a9,9,0,0,1-6.884-14.8Z" transform="translate(1243 405)" fill="#bfdfb6"/></g></g></g></g></g></svg>