<svg xmlns="http://www.w3.org/2000/svg" xmlns:xlink="http://www.w3.org/1999/xlink" width="621" height="617" viewBox="0 0 621 617"><defs><clipPath id="clip-path"><rect id="Rechteck_13012" data-name="Rechteck 13012" width="431.565" height="431.616" fill="#746180"/></clipPath><clipPath id="clip-path-2"><rect id="Rechteck_13012-2" data-name="Rechteck 13012" width="431.565" height="431.616" fill="#967ea6"/></clipPath></defs><g id="Religion" transform="translate(-551 -232)"><g id="Geschlecht"><g id="Gruppe_24462" data-name="Gruppe 24462"><path id="Pfad_46084" data-name="Pfad 46084" d="M0,0H621V617H0Z" transform="translate(551 232)" fill="#d4eace"/></g></g><g id="Gruppe_24466" data-name="Gruppe 24466" transform="translate(0 -0.5)"><g id="Gruppe_24463" data-name="Gruppe 24463" transform="translate(653.605 324.692)" clip-path="url(#clip-path)"><path id="Pfad_46086" data-name="Pfad 46086" d="M341.261,188.7c5.51,8.757,17.813,17.108,28.962,15.207,5.233-.9,9.654-4.25,15.058-7.539,17.321-10.53,36.629.107,46.155,14.652a.756.756,0,0,1-1.047,1.047c-10.508-6.856-24.861-8.351-33.789,1.88-5.788,6.6-10.829,15.292-17.706,20.547q-16.243,12.43-35.775,1.41a.457.457,0,0,0-.662.513c3.631,15.25,12.174,29.795,30.542,27,2.819-.427,9.59-1.6,13.328-1.132,18.069,2.349,27.766,16.254,30.82,32.913a.644.644,0,0,1-1.175.47c-5.98-9.355-16.3-16.446-27.595-14.182-8.565,1.73-14.1,7.3-22.383,10.957q-25.213,11.181-41.285-9.1a.616.616,0,0,0-1.089.235c-3.182,13.605.171,29.261,14.289,35.348,4.186,1.794,11.662,2.841,16.36,5.19,15.634,7.774,20.461,25.309,17.556,41.648a1.057,1.057,0,0,1-2.072.043c-3.14-14.054-13.819-25.523-29.517-23-10.295,1.666-18.389,3.332-27.616.683q-17.172-4.934-22.725-22.746a.614.614,0,0,0-1.111-.149c-6.813,10.893-11.149,28.107.085,37.27,7.112,5.788,10.978,8.992,11.64,9.59,13.584,12.495,10.658,33.02.641,46.561a.721.721,0,0,1-1.3-.47c.278-4.229.427-6.664.406-7.283-.406-27.4-21.721-24.007-37.612-31.674q-20.856-10.028-19.222-33.233a.625.625,0,0,0-.94-.577A35.246,35.246,0,0,0,230.669,352.2c-8.436,13.562-3.289,20.931,3.4,33.084,9.889,18,.555,36.48-15.762,46.24a.626.626,0,0,1-.833-.9,32.1,32.1,0,0,0,5.7-17.343c.427-13.135-9.184-20.013-18.325-26.313-15.036-10.337-19.5-27.317-11.961-44.318a.557.557,0,0,0-.641-.769c-12.751,2.862-26.847,12.559-25.779,26.869q.128,1.826,1.623,11.918c2.947,19.884-15.271,32.4-32.165,35.967a.591.591,0,0,1-.513-1.025c12.495-10.829,18.368-21.935,9.269-38-3.567-6.279-7.39-11.854-8.949-17.257q-6.151-21.177,11.79-36.437a.722.722,0,0,0-.342-1.26c-15.634-2.926-30.521.747-36.117,17.3-1.815,5.318-2.5,11.7-5.7,16.7-8.821,13.755-25.438,17.578-40.687,14.566a.866.866,0,0,1-.085-1.666c10.786-3.61,21.081-9.1,23.366-21.166,1.431-7.5-2.157-17.984-1.986-24.754q.641-26.975,25.074-34.515a.434.434,0,0,0,.128-.769c-9.5-6.877-21.764-10.06-32.635-4.827-4.912,2.392-10.188,11.106-13.883,15.122-13.178,14.417-34.088,11.662-48.334.342A.825.825,0,0,1,17,297.545a40.547,40.547,0,0,0,16.275-.043c19.756-3.8,17.343-23.836,24.946-37.783q9.932-18.165,32.1-16.51a.772.772,0,0,0,.726-1.132c-5.041-9.227-16.809-17.407-27.979-15.762-5.66.854-11.106,4.827-16.574,7.838C28.129,244.278,8.992,232.36.086,216.534a.674.674,0,0,1,.982-.876c11.491,8.394,28.022,10.316,37.484-2.179a165.59,165.59,0,0,1,11.213-13.8q17.845-17.973,40.26-5.745a.652.652,0,0,0,.94-.726c-3.311-13.883-11.747-29.346-28.9-26.762-12.238,1.837-21.764,3.46-32.123-5.425Q18.059,150.836,16.1,134.518a.626.626,0,0,1,1.111-.47c10.466,13.2,22.725,20.055,38.3,10.1,18.347-11.747,37.1-16.232,52.392,2.947a.712.712,0,0,0,1.239-.256c3.5-12.495.555-26.377-10.594-33.725-1.773-1.175-5.724-2.413-11.854-3.674q-16.6-3.428-22.939-19.927c-3.118-8.073-2.691-14.588-1.88-23.323a.894.894,0,0,1,1.666-.363c.363.619,1.175,2.606,2.478,5.916q6.7,17.172,24.818,16.51c6.044-.235,14.566-2.221,20.2-1.88Q134.2,87.755,142.8,110.9a.806.806,0,0,0,1.431.15c8.565-13.221,12.26-30.564-2.734-40.474a65.493,65.493,0,0,1-8.842-6.514c-13.968-14.075-11.469-30.8-1.922-46.3a.812.812,0,0,1,1.5.513c-1.5,15.058,2.307,27.894,18.048,32.123q13.616,3.684,14.8,4.037Q190.163,62.563,189.49,89.6a.9.9,0,0,0,1.388.769c11.512-7.518,20.589-22.64,12.43-35.8q-5.51-8.874-6.664-11.32C188.422,26.083,198.5,9.3,213.433.069a.467.467,0,0,1,.662.6c-1.068,2.435-1.837,4.186-2.328,5.275C202.5,26.446,214.821,34.648,229,45.668c14.225,11.085,17.77,27.637,9.568,44.169a.635.635,0,0,0,.726.9c13.477-3.182,23.131-9.7,26.463-23.942q.352-1.474-1.666-12.943c-3.887-22.212,11.747-34.6,31.055-39.256a.688.688,0,0,1,.577,1.217C285.452,23.5,278.746,36.976,285,48.872q7.945,15.154,9.355,18.154c7.091,15.228,1.623,30.457-9.932,41.179a.741.741,0,0,0,.427,1.282c14.16,1.773,31.546-2.05,35.305-18.09,1.516-6.429,2.264-11.854,4.934-16.83,7.753-14.417,24.327-18.5,39.427-15.463a.855.855,0,0,1,.043,1.666,34.162,34.162,0,0,0-14.993,8.287c-9.163,8.5-7.625,18.8-5.66,30.222,3.417,19.991-3.417,35.07-23.387,42.1a1.071,1.071,0,0,0-.15,1.944c11.9,6.685,29.367,9.889,38.487-2.478,5-6.771,8.244-10.829,9.739-12.131,12.751-11.256,32.443-8.65,45,1.751a.772.772,0,0,1-.662,1.346c-14.16-3.2-28.406,1.282-32.678,16.574q-3.556,12.655-4.421,15.207-8.458,24.573-33.874,23.857a.824.824,0,0,0-.7,1.26m-10.38,27.1A114.181,114.181,0,1,0,216.7,329.988,114.167,114.167,0,0,0,330.881,215.808" transform="translate(-3.506 0.876)" fill="#746180"/></g><g id="Gruppe_24464" data-name="Gruppe 24464" transform="translate(637.83 324.692)"><g id="Gruppe_24463-2" data-name="Gruppe 24463" transform="translate(0.001 0)" clip-path="url(#clip-path-2)"><path id="Pfad_46086-2" data-name="Pfad 46086" d="M341.261,188.7c5.51,8.757,17.813,17.108,28.962,15.207,5.233-.9,9.654-4.25,15.058-7.539,17.321-10.53,36.629.107,46.155,14.652a.756.756,0,0,1-1.047,1.047c-10.508-6.856-24.861-8.351-33.789,1.88-5.788,6.6-10.829,15.292-17.706,20.547q-16.243,12.43-35.775,1.41a.457.457,0,0,0-.662.513c3.631,15.25,12.174,29.795,30.542,27,2.819-.427,9.59-1.6,13.328-1.132,18.069,2.349,27.766,16.254,30.82,32.913a.644.644,0,0,1-1.175.47c-5.98-9.355-16.3-16.446-27.595-14.182-8.565,1.73-14.1,7.3-22.383,10.957q-25.213,11.181-41.285-9.1a.616.616,0,0,0-1.089.235c-3.182,13.605.171,29.261,14.289,35.348,4.186,1.794,11.662,2.841,16.36,5.19,15.634,7.774,20.461,25.309,17.556,41.648a1.057,1.057,0,0,1-2.072.043c-3.14-14.054-13.819-25.523-29.517-23-10.295,1.666-18.389,3.332-27.616.683q-17.172-4.934-22.725-22.746a.614.614,0,0,0-1.111-.149c-6.813,10.893-11.149,28.107.085,37.27,7.112,5.788,10.978,8.992,11.64,9.59,13.584,12.495,10.658,33.02.641,46.561a.721.721,0,0,1-1.3-.47c.278-4.229.427-6.664.406-7.283-.406-27.4-21.721-24.007-37.612-31.674q-20.856-10.028-19.222-33.233a.625.625,0,0,0-.94-.577A35.246,35.246,0,0,0,230.669,352.2c-8.436,13.562-3.289,20.931,3.4,33.084,9.889,18,.555,36.48-15.762,46.24a.626.626,0,0,1-.833-.9,32.1,32.1,0,0,0,5.7-17.343c.427-13.135-9.184-20.013-18.325-26.313-15.036-10.337-19.5-27.317-11.961-44.318a.557.557,0,0,0-.641-.769c-12.751,2.862-26.847,12.559-25.779,26.869q.128,1.826,1.623,11.918c2.947,19.884-15.271,32.4-32.165,35.967a.591.591,0,0,1-.513-1.025c12.495-10.829,18.368-21.935,9.269-38-3.567-6.279-7.39-11.854-8.949-17.257q-6.151-21.177,11.79-36.437a.722.722,0,0,0-.342-1.26c-15.634-2.926-30.521.747-36.117,17.3-1.815,5.318-2.5,11.7-5.7,16.7-8.821,13.755-25.438,17.578-40.687,14.566a.866.866,0,0,1-.085-1.666c10.786-3.61,21.081-9.1,23.366-21.166,1.431-7.5-2.157-17.984-1.986-24.754q.641-26.975,25.074-34.515a.434.434,0,0,0,.128-.769c-9.5-6.877-21.764-10.06-32.635-4.827-4.912,2.392-10.188,11.106-13.883,15.122-13.178,14.417-34.088,11.662-48.334.342A.825.825,0,0,1,17,297.545a40.547,40.547,0,0,0,16.275-.043c19.756-3.8,17.343-23.836,24.946-37.783q9.932-18.165,32.1-16.51a.772.772,0,0,0,.726-1.132c-5.041-9.227-16.809-17.407-27.979-15.762-5.66.854-11.106,4.827-16.574,7.838C28.129,244.278,8.992,232.36.086,216.534a.674.674,0,0,1,.982-.876c11.491,8.394,28.022,10.316,37.484-2.179a165.59,165.59,0,0,1,11.213-13.8q17.845-17.973,40.26-5.745a.652.652,0,0,0,.94-.726c-3.311-13.883-11.747-29.346-28.9-26.762-12.238,1.837-21.764,3.46-32.123-5.425Q18.059,150.836,16.1,134.518a.626.626,0,0,1,1.111-.47c10.466,13.2,22.725,20.055,38.3,10.1,18.347-11.747,37.1-16.232,52.392,2.947a.712.712,0,0,0,1.239-.256c3.5-12.495.555-26.377-10.594-33.725-1.773-1.175-5.724-2.413-11.854-3.674q-16.6-3.428-22.939-19.927c-3.118-8.073-2.691-14.588-1.88-23.323a.894.894,0,0,1,1.666-.363c.363.619,1.175,2.606,2.478,5.916q6.7,17.172,24.818,16.51c6.044-.235,14.566-2.221,20.2-1.88Q134.2,87.755,142.8,110.9a.806.806,0,0,0,1.431.15c8.565-13.221,12.26-30.564-2.734-40.474a65.493,65.493,0,0,1-8.842-6.514c-13.968-14.075-11.469-30.8-1.922-46.3a.812.812,0,0,1,1.5.513c-1.5,15.058,2.307,27.894,18.048,32.123q13.616,3.684,14.8,4.037Q190.163,62.563,189.49,89.6a.9.9,0,0,0,1.388.769c11.512-7.518,20.589-22.64,12.43-35.8q-5.51-8.874-6.664-11.32C188.422,26.083,198.5,9.3,213.433.069a.467.467,0,0,1,.662.6c-1.068,2.435-1.837,4.186-2.328,5.275C202.5,26.446,214.821,34.648,229,45.668c14.225,11.085,17.77,27.637,9.568,44.169a.635.635,0,0,0,.726.9c13.477-3.182,23.131-9.7,26.463-23.942q.352-1.474-1.666-12.943c-3.887-22.212,11.747-34.6,31.055-39.256a.688.688,0,0,1,.577,1.217C285.452,23.5,278.746,36.976,285,48.872q7.945,15.154,9.355,18.154c7.091,15.228,1.623,30.457-9.932,41.179a.741.741,0,0,0,.427,1.282c14.16,1.773,31.546-2.05,35.305-18.09,1.516-6.429,2.264-11.854,4.934-16.83,7.753-14.417,24.327-18.5,39.427-15.463a.855.855,0,0,1,.043,1.666,34.162,34.162,0,0,0-14.993,8.287c-9.163,8.5-7.625,18.8-5.66,30.222,3.417,19.991-3.417,35.07-23.387,42.1a1.071,1.071,0,0,0-.15,1.944c11.9,6.685,29.367,9.889,38.487-2.478,5-6.771,8.244-10.829,9.739-12.131,12.751-11.256,32.443-8.65,45,1.751a.772.772,0,0,1-.662,1.346c-14.16-3.2-28.406,1.282-32.678,16.574q-3.556,12.655-4.421,15.207-8.458,24.573-33.874,23.857a.824.824,0,0,0-.7,1.26m-10.38,27.1A114.181,114.181,0,1,0,216.7,329.988,114.167,114.167,0,0,0,330.881,215.808" transform="translate(0 0)" fill="#967ea6"/></g></g></g></g></svg>