<svg xmlns="http://www.w3.org/2000/svg" width="621.002" height="617.002" viewBox="0 0 621.002 617.002"><g id="sexuelleOrientierung" transform="translate(-530.498 -231.499)"><g id="sexuelleIdentität" transform="translate(-45.5 -0.499)"><rect id="Rechteck_13026" data-name="Rechteck 13026" width="621" height="103" transform="translate(576 540)" fill="#3bb07d"/><rect id="Rechteck_13027" data-name="Rechteck 13027" width="621" height="103" transform="translate(576 437)" fill="#eede77"/><rect id="Rechteck_13030" data-name="Rechteck 13030" width="621" height="103" transform="translate(576 643)" fill="#4a66bf"/><rect id="Rechteck_13031" data-name="Rechteck 13031" width="621" height="103" transform="translate(576 746)" fill="#746180"/><rect id="Rechteck_13028" data-name="Rechteck 13028" width="621" height="103" transform="translate(576 334)" fill="#e2a664"/><rect id="Rechteck_13029" data-name="Rechteck 13029" width="621" height="103" transform="translate(576 232)" fill="#cf7280"/><path id="Schnittmenge_74" data-name="Schnittmenge 74" d="M20579-763v-617h40.533L20967-1062.5,20639.23-763Z" transform="translate(-20003 1612)" fill="#514658"/><path id="Schnittmenge_73" data-name="Schnittmenge 73" d="M20619-763v-617h.527L20967-1062.5,20639.232-763Z" transform="translate(-20043 1612)" fill="#65503f"/><path id="Schnittmenge_72" data-name="Schnittmenge 72" d="M20660-1343.017l307,280.518-307,280.518Z" transform="translate(-20084 1612)" fill="#7bc2e0"/><path id="Schnittmenge_71" data-name="Schnittmenge 71" d="M20700-1306.471l267,243.971-267,243.971Z" transform="translate(-20124 1612)" fill="#f8b8e4"/><path id="Schnittmenge_70" data-name="Schnittmenge 70" d="M20741-1269.005l226,206.5-226,206.508Z" transform="translate(-20165 1612)" fill="#fff"/><path id="Schnittmenge_69" data-name="Schnittmenge 69" d="M20781-1232.457l186,169.959-186,169.957Z" transform="translate(-20205 1612)" fill="#eede77"/><g id="Ellipse_2138" data-name="Ellipse 2138" transform="translate(606 508)" fill="none" stroke="#7455a2" stroke-width="13"><circle cx="41.5" cy="41.5" r="41.5" stroke="none"/><circle cx="41.5" cy="41.5" r="35" fill="none"/></g></g></g></svg>