<svg xmlns="http://www.w3.org/2000/svg" xmlns:xlink="http://www.w3.org/1999/xlink" width="108.98" height="108.981" viewBox="0 0 108.98 108.981"><defs><clipPath id="clip-path"><rect id="Rechteck_13034" data-name="Rechteck 13034" width="108.98" height="108.981" fill="none"/></clipPath></defs><g id="Theorie_Symbol" transform="translate(-437 -191.946)"><g id="Gruppe_24487" data-name="Gruppe 24487" transform="translate(437 191.946)"><g id="Gruppe_24486" data-name="Gruppe 24486" transform="translate(0 0)" clip-path="url(#clip-path)"><path id="Pfad_46099" data-name="Pfad 46099" d="M54.492,108.983A54.49,54.49,0,1,0,0,54.491a54.6,54.6,0,0,0,54.492,54.492" transform="translate(0 -0.002)" fill="#746180" fill-rule="evenodd"/><path id="Pfad_46100" data-name="Pfad 46100" d="M212.6,360.944v39.321a58.527,58.527,0,0,1,29.562-.433c-7.206-6.391-16.2-6.388-24.814-6.388l-1.141,0V360.03l-1.628.385q-1,.251-1.98.529" transform="translate(-190.201 -322.101)" fill="#fff" fill-rule="evenodd"/><path id="Pfad_46101" data-name="Pfad 46101" d="M260.022,290.355v39.372c9.1,0,18.6.066,26.223,7.415V298.358a23.613,23.613,0,0,0-12.331-6.788,62.47,62.47,0,0,0-13.892-1.215" transform="translate(-232.628 -259.766)" fill="#fff" fill-rule="evenodd"/><path id="Pfad_46102" data-name="Pfad 46102" d="M522.142,298.357v38.784c7.627-7.349,17.124-7.415,26.223-7.415V290.354a62.473,62.473,0,0,0-13.892,1.215,23.614,23.614,0,0,0-12.331,6.788" transform="translate(-467.134 -259.765)" fill="#fff" fill-rule="evenodd"/><path id="Pfad_46103" data-name="Pfad 46103" d="M562.713,393.447c-8.61,0-17.6,0-24.811,6.385a58.514,58.514,0,0,1,29.559.433V360.944q-.981-.278-1.98-.529l-1.628-.385v33.417Z" transform="translate(-481.233 -322.101)" fill="#fff" fill-rule="evenodd"/></g></g></g></svg>