<svg xmlns="http://www.w3.org/2000/svg" xmlns:xlink="http://www.w3.org/1999/xlink" width="1681" height="150" viewBox="0 0 1681 150"><defs><clipPath id="clip-path"><rect id="Rechteck_427" data-name="Rechteck 427" width="101.777" height="52.565" transform="translate(0 0)" fill="#fdfbf6"/></clipPath><clipPath id="clip-path-2"><rect id="Rechteck_426" data-name="Rechteck 426" width="60.291" height="64.062" fill="none" stroke="#707070" stroke-width="1"/></clipPath><clipPath id="clip-Hintergrund_Kapitelabschluss-Button_2"><rect width="1681" height="150"/></clipPath></defs><g id="Hintergrund_Kapitelabschluss-Button_2" data-name="Hintergrund_Kapitelabschluss-Button – 2" clip-path="url(#clip-Hintergrund_Kapitelabschluss-Button_2)"><rect width="1681" height="150" fill="#fff"/><g id="Logo_original" transform="translate(1410.619 64.328)" clip-path="url(#clip-path)"><g id="logo-bplusr_2_" data-name="logo-bplusr (2)" transform="translate(12.714 2.72)"><g id="Gruppe_465" data-name="Gruppe 465" transform="translate(0.287)" clip-path="url(#clip-path-2)"><path id="Pfad_942" data-name="Pfad 942" d="M63.39,48.18" transform="translate(-0.931 -0.49)" fill="none" stroke="#00587f" stroke-width="1.15"/><path id="Pfad_943" data-name="Pfad 943" d="M3.13,48.18" transform="translate(-0.319 -0.49)" fill="none" stroke="#00587f" stroke-width="1.15"/><path id="Pfad_944" data-name="Pfad 944" d="M57.831,62.255v.5a.128.128,0,0,0,0,.119.168.168,0,0,0,.128.05h.594v.851a2.83,2.83,0,0,1-.406.148,1.633,1.633,0,0,1-.465.05,1.792,1.792,0,0,1-.663-.109,1.455,1.455,0,0,1-.5-.336,1.613,1.613,0,0,1-.327-.535,2.355,2.355,0,0,1-.111-.723,1.832,1.832,0,0,1,.109-.683,1.425,1.425,0,0,1,.3-.525,1.376,1.376,0,0,1,.483-.336A1.6,1.6,0,0,1,57.6,60.6a2.149,2.149,0,0,1,.376,0l.3.069a1.316,1.316,0,0,1,.238.109l.218.128a.267.267,0,0,0,.207,0,.228.228,0,0,0,.148-.109l.258-.4a2.079,2.079,0,0,0-.327-.258,2.326,2.326,0,0,0-.386-.188,2.3,2.3,0,0,0-.465-.128,3.068,3.068,0,0,0-.535,0,2.752,2.752,0,0,0-.99.178,2.3,2.3,0,0,0-.772.5,2.177,2.177,0,0,0-.483.76,2.613,2.613,0,0,0-.178.99,2.514,2.514,0,0,0,.181.992A2.158,2.158,0,0,0,55.9,64a2.267,2.267,0,0,0,.792.5,2.97,2.97,0,0,0,1.049.178,3.138,3.138,0,0,0,.871-.119,2.911,2.911,0,0,0,.76-.386V62.249Zm-4.148-2.348v3.286l-2.474-3.146L51.18,60h-.691v4.711h.772V61.721a2.86,2.86,0,0,0,0-.4l2.465,3.148a.414.414,0,0,0,.128.109.336.336,0,0,0,.178,0h.414V59.909Zm-6.592,3.959a.93.93,0,0,1-.336-.247,1.129,1.129,0,0,1-.218-.366,1.534,1.534,0,0,1-.069-.5V59.909h-.882V62.73a2.188,2.188,0,0,0,.138.772,1.7,1.7,0,0,0,.386.614,1.624,1.624,0,0,0,.614.406,2.168,2.168,0,0,0,.822.148,2.119,2.119,0,0,0,.811-.148,1.554,1.554,0,0,0,.614-.406,1.871,1.871,0,0,0,.4-.614,2.177,2.177,0,0,0,.128-.772V59.909h-.87V62.73a1.515,1.515,0,0,1-.079.483,1.158,1.158,0,0,1-.207.376.99.99,0,0,1-.336.238,1.346,1.346,0,0,1-.911,0m-3.217-.861a1.515,1.515,0,0,1-.3.525,1.415,1.415,0,0,1-.465.327,1.791,1.791,0,0,1-.622.109h-.914V60.6h.911a1.594,1.594,0,0,1,.622.119,1.168,1.168,0,0,1,.465.327,1.465,1.465,0,0,1,.3.514,2.227,2.227,0,0,1,.109.7,2.168,2.168,0,0,1-.109.691m.829-1.643a2.188,2.188,0,0,0-.483-.752,2.286,2.286,0,0,0-.752-.483,2.831,2.831,0,0,0-.99-.168H40.7V64.62h1.791a2.613,2.613,0,0,0,.99-.178,2.141,2.141,0,0,0,.752-.483,2.246,2.246,0,0,0,.483-.742,2.771,2.771,0,0,0,0-1.9M38.19,63.9V59.939h-.869v4.712h2.762v-.723Zm-1.98-3.959h-.869v4.712h.871Zm-5.167,0v4.712h1.782a2.307,2.307,0,0,0,.722-.109,1.673,1.673,0,0,0,.544-.287,1.079,1.079,0,0,0,.327-.436,1.3,1.3,0,0,0,.119-.552c0-.552-.327-.911-.99-1.049a1.337,1.337,0,0,0,.376-.188,1.188,1.188,0,0,0,.258-.238.841.841,0,0,0,.148-.276.9.9,0,0,0,0-.327,1.406,1.406,0,0,0-.089-.514.99.99,0,0,0-.317-.4,1.336,1.336,0,0,0-.535-.247,3.059,3.059,0,0,0-.793-.093Zm1.624.673a1.059,1.059,0,0,1,.653.158.6.6,0,0,1,.207.525.594.594,0,0,1-.228.514,1.2,1.2,0,0,1-.633.168h-.691v-1.4Zm-.7,3.346V62.571h.881a1.543,1.543,0,0,1,.4.05.673.673,0,0,1,.267.128.5.5,0,0,1,.148.218.6.6,0,0,1,0,.276.851.851,0,0,1,0,.276.564.564,0,0,1-.148.228.713.713,0,0,1-.258.158,1.278,1.278,0,0,1-.414.059Zm-3.632-3.335v-.691h-2.97V64.64h2.97v-.683H26.243V62.582h1.643v-.673H26.243V60.6Zm-5.484,3.3v-3.96h-.869V64.67H24.75v-.721ZM19.641,59.96h-.9l-1.851,4.712h.683a.247.247,0,0,0,.188-.069.307.307,0,0,0,.1-.128l.356-.99H20.2l.345.99a.483.483,0,0,0,.109.138.287.287,0,0,0,.188.059h.673Zm-1.2,2.969.564-1.564a2.278,2.278,0,0,0,.089-.247,1.552,1.552,0,0,1,.089-.317,1.069,1.069,0,0,0,.089.317,2.278,2.278,0,0,0,.089.247l.574,1.564ZM17.295,59.96H13.575v.713h1.416v3.959h.851v-3.96h1.423Zm-4.345,0H12.07v4.712h.881Zm-3.294,2.3v.5a.168.168,0,0,0,.05.119.188.188,0,0,0,.128.05h.594v.851a2.711,2.711,0,0,1-.4.148,1.726,1.726,0,0,1-.465.05,1.763,1.763,0,0,1-.653-.109,1.376,1.376,0,0,1-.5-.336,1.613,1.613,0,0,1-.336-.552,2.088,2.088,0,0,1-.148-.7,2.059,2.059,0,0,1,.109-.683,1.445,1.445,0,0,1,.307-.525,1.257,1.257,0,0,1,.475-.336,1.644,1.644,0,0,1,.633-.119,2.266,2.266,0,0,1,.386,0,1.752,1.752,0,0,1,.287.069l.247.109.207.128a.276.276,0,0,0,.207,0,.247.247,0,0,0,.158-.109l.248-.4a2.079,2.079,0,0,0-.327-.258,1.98,1.98,0,0,0-.386-.188,2.129,2.129,0,0,0-.465-.128,3.068,3.068,0,0,0-.535,0,2.791,2.791,0,0,0-.99.178,2.257,2.257,0,0,0-.76.5,2.21,2.21,0,0,0-.5.76,2.613,2.613,0,0,0-.169.99,2.514,2.514,0,0,0,.178.99,2.141,2.141,0,0,0,.5.76,2.217,2.217,0,0,0,.8.5,2.9,2.9,0,0,0,.99.178,3.038,3.038,0,0,0,.871-.119,2.911,2.911,0,0,0,.76-.386V62.246ZM6.29,59.907H5.409v4.712H6.29ZM3.627,62.968a1.346,1.346,0,0,1-.287.525,1.454,1.454,0,0,1-.475.327,1.713,1.713,0,0,1-.622.109H1.331V60.6h.91a1.525,1.525,0,0,1,.622.119,1.208,1.208,0,0,1,.475.327,1.307,1.307,0,0,1,.287.514,2.227,2.227,0,0,1,.109.7,2.168,2.168,0,0,1-.109.691m.829-1.643a2.059,2.059,0,0,0-.49-.747,2.187,2.187,0,0,0-.752-.483,2.751,2.751,0,0,0-.99-.169H.45v4.712H2.241a2.544,2.544,0,0,0,.99-.178,2.059,2.059,0,0,0,.733-.483,2.1,2.1,0,0,0,.483-.742,2.624,2.624,0,0,0,0-1.9" transform="translate(-0.292 -0.608)" fill="#283078" stroke="#707070" stroke-width="1"/><path id="Pfad_945" data-name="Pfad 945" d="M58.554,55.148a1.06,1.06,0,0,0-.148-.188l-.148-.119a1.981,1.981,0,0,0,.436-.2,1.387,1.387,0,0,0,.327-.307,1.455,1.455,0,0,0,.207-.386,1.613,1.613,0,0,0,.069-.445,1.455,1.455,0,0,0-.1-.525,1.119,1.119,0,0,0-.327-.425,1.5,1.5,0,0,0-.564-.276,2.831,2.831,0,0,0-.822-.1H56.05v4.761h.881V55.05h.376a.465.465,0,0,1,.188,0,.4.4,0,0,1,.128.128l.99,1.5a.345.345,0,0,0,.327.178h.792Zm-1.624-.733V52.852h.552a1.128,1.128,0,0,1,.722.2.653.653,0,0,1,.238.544.921.921,0,0,1-.039.376.752.752,0,0,1-.178.258.861.861,0,0,1-.3.168,1.445,1.445,0,0,1-.436.059ZM54.159,51.29a.414.414,0,0,0-.089-.138.7.7,0,0,0-.138-.1.5.5,0,0,0-.169,0h-.178a.7.7,0,0,0-.138.1.662.662,0,0,0-.089.138.5.5,0,0,0,0,.168.465.465,0,0,0,0,.169.663.663,0,0,0,.089.138.414.414,0,0,0,.138.089.564.564,0,0,0,.178,0,.5.5,0,0,0,.169,0,.386.386,0,0,0,.228-.228.326.326,0,0,0,0-.169.345.345,0,0,0,0-.168m-1.435,0a.414.414,0,0,0-.089-.138.553.553,0,0,0-.148-.1.465.465,0,0,0-.169,0,.406.406,0,0,0-.158,0,.5.5,0,0,0-.138.1.7.7,0,0,0-.1.138.505.505,0,0,0,0,.168.465.465,0,0,0,0,.168.7.7,0,0,0,.1.138.336.336,0,0,0,.138.089.406.406,0,0,0,.158,0,.465.465,0,0,0,.168,0,.376.376,0,0,0,.148-.089.414.414,0,0,0,.089-.138.327.327,0,0,0,0-.168.345.345,0,0,0,0-.169M52.586,56.1a.99.99,0,0,1-.336-.238,1.158,1.158,0,0,1-.207-.376A1.514,1.514,0,0,1,51.963,55V52.179H51.09V54.96a2.177,2.177,0,0,0,.128.772,2.029,2.029,0,0,0,.4.622,1.643,1.643,0,0,0,.614.4,2.118,2.118,0,0,0,.811.148,2.169,2.169,0,0,0,.822-.148,1.722,1.722,0,0,0,.614-.4,1.841,1.841,0,0,0,.386-.622,2.178,2.178,0,0,0,.128-.772V52.179h-.871V54.96a1.8,1.8,0,0,1-.069.483.99.99,0,0,1-.552.614,1.1,1.1,0,0,1-.455.079,1.128,1.128,0,0,1-.455-.079M50.37,52.831V52.14H47.4v4.8h.871V54.96h1.769V54.27H48.269v-1.4ZM42.649,55.11a.99.99,0,0,0-.079-.148l-.158-.119a1.762,1.762,0,0,0,.436-.2,1.089,1.089,0,0,0,.327-.307,1.455,1.455,0,0,0,.207-.386,1.316,1.316,0,0,0,.069-.445,1.455,1.455,0,0,0-.109-.552,1.2,1.2,0,0,0-.317-.425,1.673,1.673,0,0,0-.564-.276,2.871,2.871,0,0,0-.822-.1h-1.5v4.791h.879V55.05H41.4a.524.524,0,0,1,.2,0,.5.5,0,0,1,.119.128l.99,1.5a.345.345,0,0,0,.327.178h.792Zm-1.628-.733V52.852h.552a1.089,1.089,0,0,1,.713.2.653.653,0,0,1,.238.544.92.92,0,0,1-.059.336.752.752,0,0,1-.178.258.861.861,0,0,1-.3.168,1.446,1.446,0,0,1-.436.059Zm-1.722-1.5v-.691H36.33v4.761H39.3v-.7H37.213V54.851h1.653v-.673H37.213V52.872Zm-4.85-.691v3.294l-2.474-3.157a.218.218,0,0,0-.059-.069h-.691V56.94H32V53.971a2.97,2.97,0,0,0,0-.406l2.464,3.148a.356.356,0,0,0,.138.109.287.287,0,0,0,.168,0h.453V52.179Zm-3.89,0H26.849V52.9h1.416v3.959h.879V52.9h1.416ZM25.61,55.15a.991.991,0,0,0-.128-.158l-.158-.119a1.98,1.98,0,0,0,.445-.2,1.168,1.168,0,0,0,.317-.307,1.455,1.455,0,0,0,.207-.386,1.316,1.316,0,0,0,.069-.445,1.455,1.455,0,0,0-.109-.552,1.2,1.2,0,0,0-.317-.425,1.673,1.673,0,0,0-.564-.276,2.87,2.87,0,0,0-.822-.1H23.136v4.761h.881v-1.9h.376a.524.524,0,0,1,.2,0,.5.5,0,0,1,.119.128l.99,1.5a.345.345,0,0,0,.327.178h.792Zm-1.624-.733V52.852h.564a1.148,1.148,0,0,1,.722.2.683.683,0,0,1,.228.544.921.921,0,0,1-.059.336.614.614,0,0,1-.169.258.911.911,0,0,1-.307.168,1.406,1.406,0,0,1-.436.059Zm-3.2-2.237H19.8L17.99,56.942h.683a.287.287,0,0,0,.188-.059.406.406,0,0,0,.1-.138l.356-.99H21.3l.345.99a.483.483,0,0,0,.109.138.287.287,0,0,0,.188.059h.673Zm-1.2,2.969.564-1.564a2.274,2.274,0,0,0,.089-.247,1.553,1.553,0,0,1,.089-.317,1.069,1.069,0,0,0,.089.317,2.279,2.279,0,0,0,.089.247l.574,1.564Zm-4.761-2.969v4.761H15.7V55.226h.663a2.8,2.8,0,0,0,.8-.109,1.712,1.712,0,0,0,.564-.317,1.327,1.327,0,0,0,.345-.5,1.594,1.594,0,0,0,.119-.622,1.544,1.544,0,0,0-.119-.614,1.277,1.277,0,0,0-.327-.475,1.752,1.752,0,0,0-.574-.307,2.832,2.832,0,0,0-.811-.109Zm.871,2.366V52.852h.663a1.317,1.317,0,0,1,.414.059.733.733,0,0,1,.3.168.673.673,0,0,1,.178.258,1.069,1.069,0,0,1,0,.7.742.742,0,0,1-.178.276.861.861,0,0,1-.3.169,1.317,1.317,0,0,1-.414.059Zm-5.622.6a.99.99,0,0,0-.178-.188l-.158-.119a1.841,1.841,0,0,0,.445-.2,1.386,1.386,0,0,0,.327-.307,1.425,1.425,0,0,0,.2-.386,1.316,1.316,0,0,0,.069-.445,1.455,1.455,0,0,0-.1-.552,1.119,1.119,0,0,0-.327-.425,1.673,1.673,0,0,0-.564-.276,2.871,2.871,0,0,0-.822-.1H7.537v4.791h.871v-1.9h.376a.524.524,0,0,1,.2,0,.376.376,0,0,1,.119.128l.99,1.5a.345.345,0,0,0,.327.178h.791Zm-1.624-.733V52.852H9.02a1.128,1.128,0,0,1,.722.2.653.653,0,0,1,.238.544.921.921,0,0,1-.079.376.752.752,0,0,1-.178.258.822.822,0,0,1-.307.168,1.385,1.385,0,0,1-.425.059ZM5.587,52.179v2.029H3.33V52.179H2.449V56.94H3.33V54.832H5.54V56.94h.878V52.179Zm-4.207,0H.45V56.94h.881Z" transform="translate(-0.292 -0.52)" fill="#283078" stroke="#707070" stroke-width="1"/></g><path id="Pfad_946" data-name="Pfad 946" d="M28.319,33.159a19.7,19.7,0,0,1-.722,2.158A13.7,13.7,0,0,1,17.2,43.771a14.541,14.541,0,0,1-9.344-.99A13.155,13.155,0,0,1,.376,33.159,16.223,16.223,0,0,1,0,29.695V0H5.761V19.074c5.058-3.84,10.423-4.226,15.946-1.257A13.145,13.145,0,0,1,28.3,26.725H22.47a.327.327,0,0,1-.345-.228,8.127,8.127,0,0,0-8.118-5.159A8.335,8.335,0,0,0,5.939,28.8a8.473,8.473,0,0,0,2.555,7.652,8,8,0,0,0,5.82,2.148,8.384,8.384,0,0,0,5.811-2.237A8.047,8.047,0,0,0,22.1,33.4c.059-.138.089-.247.3-.247Z" fill="#281d19"/><path id="Pfad_947" data-name="Pfad 947" d="M54.594,44.269H48.139V24.225a7.266,7.266,0,0,1,1.316-4.464,6.75,6.75,0,0,1,4.256-2.6,14.185,14.185,0,0,1,2.417-.258H60.85v6.038h-.327c-1.119,0-2.227,0-3.346.069a3.7,3.7,0,0,0-.99.218A2.316,2.316,0,0,0,54.6,25.442V44.269Z" transform="translate(-0.489 -0.172)" fill="#281d19"/><path id="Pfad_948" data-name="Pfad 948" d="M33.575,19.33h3.81v8.977H45.7v3.712H37.385v8.969H33.6V32.03H25.3V28.318h8.275Z" transform="translate(-0.257 -0.197)" fill="#00587f"/></g></g><rect id="Rechteck_12202" data-name="Rechteck 12202" width="78" height="16" transform="translate(1351 120)" fill="#fff"/><g id="logo_3_" data-name="logo (3)" transform="translate(1282.604 64.327)"><rect id="Rechteck_12986" data-name="Rechteck 12986" width="48.426" height="48.426" transform="translate(2.178 7.574) rotate(-8.998)" fill="#bcdcf5"/><g id="Gruppe_24383" data-name="Gruppe 24383" transform="translate(67.307 19.97)"><path id="Pfad_45384" data-name="Pfad 45384" d="M544.409,166.866a.545.545,0,0,0-.211-.46,2.424,2.424,0,0,0-.771-.336,5.955,5.955,0,0,1-.87-.348,1.434,1.434,0,0,1-.883-1.28,1.238,1.238,0,0,1,.236-.746,1.561,1.561,0,0,1,.671-.51,2.533,2.533,0,0,1,.994-.186,2.236,2.236,0,0,1,.982.2,1.66,1.66,0,0,1,.671.559,1.481,1.481,0,0,1,.236.833h-1.056a.677.677,0,0,0-.224-.547.89.89,0,0,0-.622-.2.985.985,0,0,0-.609.162.5.5,0,0,0-.211.435.516.516,0,0,0,.249.423,3.083,3.083,0,0,0,.746.323,3.313,3.313,0,0,1,1.318.671,1.369,1.369,0,0,1,.41,1.007,1.23,1.23,0,0,1-.51,1.044,2.26,2.26,0,0,1-1.367.385,2.55,2.55,0,0,1-1.081-.224,1.809,1.809,0,0,1-.746-.6,1.509,1.509,0,0,1-.261-.882h1.069c0,.572.336.858,1.019.858a1.06,1.06,0,0,0,.6-.149A.5.5,0,0,0,544.409,166.866Z" transform="translate(-541.5 -162.714)" fill="#0069b4"/><path id="Pfad_45385" data-name="Pfad 45385" d="M578.379,166.512v.945h.659v.746h-.659v1.914a.39.39,0,0,0,.087.3.4.4,0,0,0,.311.087,2.062,2.062,0,0,0,.3-.025v.771a2.086,2.086,0,0,1-.621.087.97.97,0,0,1-1.094-1.081V168.19H576.8v-.746h.559V166.5h1.019Z" transform="translate(-572.412 -165.779)" fill="#0069b4"/><path id="Pfad_45386" data-name="Pfad 45386" d="M598.9,162.522a.506.506,0,0,1,.149-.373.585.585,0,0,1,.423-.149.605.605,0,0,1,.423.149.517.517,0,0,1,.162.373.481.481,0,0,1-.162.385.574.574,0,0,1-.41.149.554.554,0,0,1-.41-.149A.455.455,0,0,1,598.9,162.522Zm1.081,4.823H598.95v-3.828h1.032Z" transform="translate(-591.765 -161.838)" fill="#0069b4"/><path id="Pfad_45387" data-name="Pfad 45387" d="M612.172,166.206v-3.083H611.6v-.746h.572v-.323a1.294,1.294,0,0,1,.373-.994,1.447,1.447,0,0,1,1.032-.36,2.371,2.371,0,0,1,.522.075l-.012.8a1.12,1.12,0,0,0-.311-.037c-.385,0-.572.186-.572.547v.311h.758v.746H613.2v3.07Z" transform="translate(-602.887 -160.7)" fill="#0069b4"/><path id="Pfad_45388" data-name="Pfad 45388" d="M634.679,166.512v.945h.659v.746h-.659v1.914a.389.389,0,0,0,.087.3.4.4,0,0,0,.311.087,2.065,2.065,0,0,0,.3-.025v.771a2.087,2.087,0,0,1-.621.087.97.97,0,0,1-1.094-1.081V168.19H633.1v-.746h.559V166.5h1.019Z" transform="translate(-621.714 -165.779)" fill="#0069b4"/><path id="Pfad_45389" data-name="Pfad 45389" d="M657.524,177.731a1.257,1.257,0,0,1-1.044.46,1.229,1.229,0,0,1-.945-.348,1.576,1.576,0,0,1-.336-1.032V174.3h1.019v2.473c0,.4.187.6.547.6a.762.762,0,0,0,.721-.36V174.3h1.032v3.816h-.957Z" transform="translate(-641.068 -172.61)" fill="#0069b4"/><path id="Pfad_45390" data-name="Pfad 45390" d="M688.97,173.762l.037.447a1.328,1.328,0,0,1,1.106-.51,1.117,1.117,0,0,1,.907.36,1.637,1.637,0,0,1,.3,1.069v2.461H690.3v-2.449a.714.714,0,0,0-.137-.472.633.633,0,0,0-.472-.149.7.7,0,0,0-.646.373v2.7H688v-3.828Z" transform="translate(-669.791 -172.084)" fill="#0069b4"/><path id="Pfad_45391" data-name="Pfad 45391" d="M719.6,175.651a2.211,2.211,0,0,1,.423-1.417,1.347,1.347,0,0,1,1.131-.534,1.2,1.2,0,0,1,.982.435l.037-.36h.932v3.692a1.648,1.648,0,0,1-.224.87,1.456,1.456,0,0,1-.646.572,2.323,2.323,0,0,1-.97.2,2.067,2.067,0,0,1-.82-.174,1.538,1.538,0,0,1-.609-.435l.447-.621a1.2,1.2,0,0,0,.932.423.857.857,0,0,0,.634-.224.827.827,0,0,0,.224-.621v-.211a1.2,1.2,0,0,1-.932.4,1.355,1.355,0,0,1-1.119-.534,2.224,2.224,0,0,1-.423-1.429Zm1.019.075a1.429,1.429,0,0,0,.211.82.665.665,0,0,0,.572.3.711.711,0,0,0,.671-.348v-1.616a.7.7,0,0,0-.659-.348.687.687,0,0,0-.584.3A1.583,1.583,0,0,0,720.619,175.726Z" transform="translate(-697.463 -172.084)" fill="#0069b4"/></g><g id="Gruppe_24384" data-name="Gruppe 24384" transform="translate(67.493 29.118)"><path id="Pfad_45392" data-name="Pfad 45392" d="M543,242.358V237.2h1.69a1.892,1.892,0,0,1,1.255.348,1.247,1.247,0,0,1,.423,1.032,1.051,1.051,0,0,1-.211.634,1.416,1.416,0,0,1-.559.435,1.17,1.17,0,0,1,.659.447,1.28,1.28,0,0,1,.249.783,1.406,1.406,0,0,1-.447,1.094,1.867,1.867,0,0,1-1.268.4H543Zm.684-2.958h1.032a1.053,1.053,0,0,0,.708-.224.87.87,0,0,0,.012-1.231,1.23,1.23,0,0,0-.758-.2h-1.007V239.4Zm0,.547V241.8H544.8a1.1,1.1,0,0,0,.746-.249.846.846,0,0,0,.273-.684q0-.932-1.007-.932h-1.131Z" transform="translate(-543 -236.84)" fill="#0069b4"/><path id="Pfad_45393" data-name="Pfad 45393" d="M578.1,236.985a.41.41,0,0,1,.1-.273.421.421,0,0,1,.572,0,.41.41,0,0,1,.1.273.4.4,0,0,1-.671.261A.378.378,0,0,1,578.1,236.985Zm.708,4.848h-.659V238h.659Z" transform="translate(-573.737 -236.314)" fill="#0069b4"/><path id="Pfad_45394" data-name="Pfad 45394" d="M592.859,240.432H592.2V235h.659Z" transform="translate(-586.085 -234.913)" fill="#0069b4"/><path id="Pfad_45395" data-name="Pfad 45395" d="M604.3,238.393a2.211,2.211,0,0,1,.423-1.417,1.309,1.309,0,0,1,1.094-.534,1.323,1.323,0,0,1,1.069.46v-2h.659v5.432h-.6l-.037-.41a1.322,1.322,0,0,1-1.094.485,1.3,1.3,0,0,1-1.081-.547,2.287,2.287,0,0,1-.423-1.417v-.05Zm.659.075a1.655,1.655,0,0,0,.273,1.019.856.856,0,0,0,.746.373.953.953,0,0,0,.907-.559v-1.765a.974.974,0,0,0-.907-.547.856.856,0,0,0-.746.373A1.84,1.84,0,0,0,604.959,238.467Z" transform="translate(-596.681 -234.825)" fill="#0069b4"/><path id="Pfad_45396" data-name="Pfad 45396" d="M640.574,251.255a1.39,1.39,0,0,1-1.119.447,1.189,1.189,0,0,1-.932-.36,1.534,1.534,0,0,1-.323-1.056V247.8h.659v2.473c0,.584.236.87.708.87a.974.974,0,0,0,.994-.559V247.8h.659v3.828H640.6Z" transform="translate(-626.367 -246.122)" fill="#0069b4"/><path id="Pfad_45397" data-name="Pfad 45397" d="M670.822,247.462l.025.485a1.379,1.379,0,0,1,1.143-.547c.808,0,1.218.46,1.231,1.367V251.3h-.659v-2.536a.85.85,0,0,0-.187-.609.739.739,0,0,0-.584-.2.963.963,0,0,0-.559.174,1.1,1.1,0,0,0-.373.447v2.734H670.2v-3.828h.621Z" transform="translate(-654.39 -245.772)" fill="#0069b4"/><path id="Pfad_45398" data-name="Pfad 45398" d="M701,249.164a2.3,2.3,0,0,1,.41-1.429,1.343,1.343,0,0,1,1.094-.534,1.3,1.3,0,0,1,1.094.5l.037-.423h.6v3.741a1.575,1.575,0,0,1-.435,1.168,1.618,1.618,0,0,1-1.181.423,2.055,2.055,0,0,1-.808-.174,1.4,1.4,0,0,1-.609-.485l.336-.4a1.283,1.283,0,0,0,1.032.522.967.967,0,0,0,.746-.273,1.04,1.04,0,0,0,.261-.758v-.323a1.353,1.353,0,0,1-1.069.447,1.337,1.337,0,0,1-1.094-.547A2.276,2.276,0,0,1,701,249.164Zm.646.075a1.743,1.743,0,0,0,.261,1.019.856.856,0,0,0,.746.373.952.952,0,0,0,.907-.559v-1.753a.974.974,0,0,0-.907-.547.856.856,0,0,0-.746.373A1.967,1.967,0,0,0,701.646,249.238Z" transform="translate(-681.361 -245.597)" fill="#0069b4"/><path id="Pfad_45399" data-name="Pfad 45399" d="M751.674,251.255a1.39,1.39,0,0,1-1.119.447,1.189,1.189,0,0,1-.932-.36,1.534,1.534,0,0,1-.323-1.056V247.8h.659v2.473c0,.584.236.87.708.87a.974.974,0,0,0,.994-.559V247.8h.659v3.828H751.7Z" transform="translate(-723.658 -246.122)" fill="#0069b4"/><path id="Pfad_45400" data-name="Pfad 45400" d="M782.022,247.462l.025.485a1.379,1.379,0,0,1,1.143-.547c.808,0,1.218.46,1.231,1.367V251.3h-.659v-2.536a.85.85,0,0,0-.186-.609.739.739,0,0,0-.584-.2.963.963,0,0,0-.559.174,1.1,1.1,0,0,0-.373.447v2.734H781.4v-3.828h.621Z" transform="translate(-751.768 -245.772)" fill="#0069b4"/><path id="Pfad_45401" data-name="Pfad 45401" d="M812,238.393a2.211,2.211,0,0,1,.423-1.417,1.309,1.309,0,0,1,1.094-.534,1.323,1.323,0,0,1,1.069.46v-2h.659v5.432h-.6l-.037-.41a1.322,1.322,0,0,1-1.094.485,1.3,1.3,0,0,1-1.081-.547,2.287,2.287,0,0,1-.422-1.417v-.05Zm.659.075a1.654,1.654,0,0,0,.273,1.019.855.855,0,0,0,.746.373.953.953,0,0,0,.907-.559v-1.765a.974.974,0,0,0-.907-.547.855.855,0,0,0-.746.373A1.84,1.84,0,0,0,812.659,238.467Z" transform="translate(-778.564 -234.825)" fill="#0069b4"/><path id="Pfad_45402" data-name="Pfad 45402" d="M861.5,242.358V237.2h1.678a1.892,1.892,0,0,1,1.255.348,1.246,1.246,0,0,1,.423,1.032,1.05,1.05,0,0,1-.211.634,1.415,1.415,0,0,1-.559.435,1.17,1.17,0,0,1,.659.447,1.28,1.28,0,0,1,.249.783,1.406,1.406,0,0,1-.447,1.094,1.867,1.867,0,0,1-1.268.4H861.5Zm.671-2.958H863.2a1.052,1.052,0,0,0,.708-.224.87.87,0,0,0,.012-1.231,1.23,1.23,0,0,0-.758-.2h-1.007V239.4Zm0,.547V241.8h1.119a1.1,1.1,0,0,0,.746-.249.846.846,0,0,0,.274-.684q0-.932-1.007-.932h-1.131Z" transform="translate(-821.911 -236.84)" fill="#0069b4"/><path id="Pfad_45403" data-name="Pfad 45403" d="M897.253,251.265a1.685,1.685,0,0,1-1.268-.51,1.9,1.9,0,0,1-.485-1.367v-.124a2.236,2.236,0,0,1,.224-1.019,1.667,1.667,0,0,1,.609-.7,1.491,1.491,0,0,1,.845-.249,1.4,1.4,0,0,1,1.156.5,2.127,2.127,0,0,1,.41,1.4v.273h-2.6a1.409,1.409,0,0,0,.336.92,1.037,1.037,0,0,0,.808.348,1.193,1.193,0,0,0,.584-.137,1.72,1.72,0,0,0,.423-.373l.4.311A1.605,1.605,0,0,1,897.253,251.265Zm-.087-3.431a.921.921,0,0,0-.671.286,1.466,1.466,0,0,0-.336.808h1.914v-.05a1.243,1.243,0,0,0-.274-.771A.78.78,0,0,0,897.166,247.835Z" transform="translate(-851.685 -245.684)" fill="#0069b4"/><path id="Pfad_45404" data-name="Pfad 45404" d="M929.752,248.046a2.621,2.621,0,0,0-.323-.025.855.855,0,0,0-.87.547v2.722H927.9v-3.828h.634l.012.448a1,1,0,0,1,.907-.51.59.59,0,0,1,.286.05v.6Z" transform="translate(-880.058 -245.772)" fill="#0069b4"/><path id="Pfad_45405" data-name="Pfad 45405" d="M949.974,251.255a1.39,1.39,0,0,1-1.119.447,1.189,1.189,0,0,1-.932-.36,1.533,1.533,0,0,1-.323-1.056V247.8h.659v2.473c0,.584.236.87.708.87a.974.974,0,0,0,.994-.559V247.8h.659v3.828H950Z" transform="translate(-897.31 -246.122)" fill="#0069b4"/><path id="Pfad_45406" data-name="Pfad 45406" d="M977.709,239.819V236.5H977.1v-.51h.609v-.4a1.3,1.3,0,0,1,.336-.957,1.26,1.26,0,0,1,.932-.336,1.847,1.847,0,0,1,.448.062l-.037.522a1.573,1.573,0,0,0-.348-.037.666.666,0,0,0-.5.186.767.767,0,0,0-.174.534v.41h.82v.51h-.82v3.319h-.659Z" transform="translate(-923.143 -234.3)" fill="#0069b4"/></g><path id="Pfad_45407" data-name="Pfad 45407" d="M303.2,152.954,314.461,129.4h10.8v23.554h-6.5v-3.493h-6.687l-1.678,3.493Zm15.562-17.488-4.624,9.658h4.624Z" transform="translate(-265.513 -113.32)" fill="#0069b4"/><path id="Pfad_45408" data-name="Pfad 45408" d="M132.9,152.954,144.161,129.4h10.8v23.554h-6.488v-3.493h-6.687l-1.678,3.493Zm15.562-17.488-4.624,9.658h4.624Z" transform="translate(-116.381 -113.32)" fill="#0069b4"/><g id="Gruppe_24385" data-name="Gruppe 24385" transform="translate(0 16.08)"><path id="Pfad_45409" data-name="Pfad 45409" d="M0,152.954V129.4H7.371a17.387,17.387,0,0,1,4.91.646,9.829,9.829,0,0,1,3.828,2.063,9.585,9.585,0,0,1,2.486,3.629,14.213,14.213,0,0,1,.883,5.332,14.71,14.71,0,0,1-.87,5.357,9.52,9.52,0,0,1-2.449,3.692,9.93,9.93,0,0,1-3.729,2.138,15.386,15.386,0,0,1-4.7.684H0Zm6.513-5h.36a8.72,8.72,0,0,0,2.387-.311,4.508,4.508,0,0,0,1.939-1.069,5.072,5.072,0,0,0,1.28-2.1,10.5,10.5,0,0,0,.472-3.406,10.156,10.156,0,0,0-.472-3.368,4.9,4.9,0,0,0-1.28-2.026,4.378,4.378,0,0,0-1.939-.994,9.817,9.817,0,0,0-2.387-.273h-.36v13.548Z" transform="translate(0 -129.4)" fill="#0069b4"/></g></g></g></svg>